G04 ================== begin FILE IDENTIFICATION RECORD ==================*
G04 Layout Name:  C:/projects/Mosac/brd_tilebridge/layout/brd_tile_bridge.brd*
G04 Film Name:    BSILK*
G04 File Format:  Gerber RS274X*
G04 File Origin:  Cadence Allegro 17.4-S027*
G04 Origin Date:  Wed Nov 29 10:49:28 2023*
G04 *
G04 Layer:  MANUFACTURING/AUTOSILK_BOTTOM*
G04 *
G04 Offset:    (0.0 0.0)*
G04 Mirror:    No*
G04 Mode:      Positive*
G04 Rotation:  0*
G04 FullContactRelief:  No*
G04 UndefLineWidth:     3.0*
G04 ================== end FILE IDENTIFICATION RECORD ====================*
%FSLAX25Y25*MOIN*%
%IR0*IPPOS*OFA0.00000B0.00000*MIA0B0*SFA1.00000B1.00000*%
%ADD10C,.003*%
G75*
%LPD*%
G75*
G54D10*
G01X134800Y38130D02*
Y-38130D01*
X116870Y-56060D01*
X98910D01*
X39860Y-36370D01*
X-39860D01*
X-98910Y-56060D01*
X-116870D01*
X-134800Y-38130D01*
Y38130D01*
X-116870Y56060D01*
X-98910D01*
X-39860Y36370D01*
X39860D01*
X98910Y56060D01*
X116870D01*
X134800Y38130D01*
G01X-27870Y14500D02*
X-26670Y14570D01*
G01X-29040D02*
X-27870Y14500D01*
G01X-29770Y14770D02*
X-29040Y14570D01*
G01X-30370Y15060D02*
X-29770Y14770D01*
G01X-30840Y15460D02*
X-30370Y15060D01*
G01X-31190Y15950D02*
X-30840Y15460D01*
G01X-31310Y16280D02*
X-31190Y15950D01*
G01X-31330Y16840D02*
X-31310Y16280D01*
G01X-29680Y16490D02*
X-29740Y16750D01*
G01X-29490Y16250D02*
X-29680Y16490D01*
G01X-29170Y16050D02*
X-29490Y16250D01*
G01X-28450Y15840D02*
X-29170Y16050D01*
G01X-27650Y15810D02*
X-28450Y15840D01*
G01X-26900Y15950D02*
X-27650Y15810D01*
G01X-26330Y16250D02*
X-26900Y15950D01*
G01X-31310Y17420D02*
X-31330Y16840D01*
G01X-31180Y17740D02*
X-31310Y17420D01*
G01X-30840Y18180D02*
X-31180Y17740D01*
G01X-30340Y18520D02*
X-30840Y18180D01*
G01X-29600Y18800D02*
X-30340Y18520D01*
G01X-28320Y19090D02*
X-29600Y18800D01*
G01X-26830Y19450D02*
X-28320Y19090D01*
G01X-26230Y19770D02*
X-26830Y19450D01*
G01X-27080Y21070D02*
X-26530Y20930D01*
G01X-27850Y21100D02*
X-27080Y21070D01*
G01X-28450Y21060D02*
X-27850Y21100D01*
G01X-28840Y20910D02*
X-28450Y21060D01*
G01X-29320Y20570D02*
X-28840Y20910D01*
G01X-29520Y20180D02*
X-29320Y20570D01*
G01X-29600Y19760D02*
X-29520Y20180D01*
G01X-29600Y19610D02*
Y19760D01*
G01X-30410Y19610D02*
X-29600D01*
G01X-31220D02*
X-30410D01*
G01X-31180Y19910D02*
X-31220Y19610D01*
G01X-30980Y20790D02*
X-31180Y19910D01*
G01X-30590Y21460D02*
X-30980Y20790D01*
G01X-29980Y21950D02*
X-30590Y21460D01*
G01X-29140Y22290D02*
X-29980Y21950D01*
G01X-27710Y22390D02*
X-29140Y22290D01*
G01X-26270Y22280D02*
X-27710Y22390D01*
G01X-27530Y17880D02*
X-25950Y18280D01*
G01X-29110Y17470D02*
X-27530Y17880D01*
G01X-29470Y17270D02*
X-29110Y17470D01*
G01X-29670Y17020D02*
X-29470Y17270D01*
G01X-29740Y16750D02*
X-29670Y17020D01*
G01X-26030Y16620D02*
X-26330Y16250D01*
G01X-24310Y16510D02*
X-24220Y17090D01*
G01X-24510Y15940D02*
X-24310Y16510D01*
G01X-24850Y15450D02*
X-24510Y15940D01*
G01X-25320Y15060D02*
X-24850Y15450D01*
G01X-25930Y14760D02*
X-25320Y15060D01*
G01X-26670Y14570D02*
X-25930Y14760D01*
G01X-19500Y15860D02*
X-20320Y15990D01*
G01X-18660Y15910D02*
X-19500Y15860D01*
G01X-17990Y16220D02*
X-18660Y15910D01*
G01X-17540Y16760D02*
X-17990Y16220D01*
G01X-21010Y16520D02*
X-21230Y16940D01*
G01X-20700Y16210D02*
X-21010Y16520D01*
G01X-20320Y15990D02*
X-20700Y16210D01*
G01X-20410Y14510D02*
X-19230Y14500D01*
G01X-21360Y14770D02*
X-20410Y14510D01*
G01X-22110Y15290D02*
X-21360Y14770D01*
G01X-22650Y16070D02*
X-22110Y15290D01*
G01X-23010Y17210D02*
X-22650Y16070D01*
G01X-16100Y14600D02*
X-15640D01*
G01X-16560D02*
X-16100D01*
G01X-16700Y15100D02*
X-16560Y14600D01*
G01X-16850Y15600D02*
X-16700Y15100D01*
G01X-17140Y15320D02*
X-16850Y15600D01*
G01X-17540Y15000D02*
X-17140Y15320D01*
G01X-18020Y14760D02*
X-17540Y15000D01*
G01X-19230Y14500D02*
X-18020Y14760D01*
G01X-26050Y20010D02*
X-26230Y19770D01*
G01X-26030Y20340D02*
X-26050Y20010D01*
G01X-26170Y20690D02*
X-26030Y20340D01*
G01X-26530Y20930D02*
X-26170Y20690D01*
G01X-25690Y22080D02*
X-26270Y22280D01*
G01X-25210Y21810D02*
X-25690Y22080D01*
G01X-24840Y21480D02*
X-25210Y21810D01*
G01X-24580Y21070D02*
X-24840Y21480D01*
G01X-24430Y20700D02*
X-24570Y21070D01*
G01X-24390Y20230D02*
X-24430Y20700D01*
G01X-24490Y19370D02*
X-24390Y20230D01*
G01X-24680Y19030D02*
X-24490Y19370D01*
G01X-24980Y18750D02*
X-24680Y19030D01*
G01X-25950Y18280D02*
X-24980Y18750D01*
G01X-25880Y17070D02*
X-26030Y16620D01*
G01X-25850Y17310D02*
X-25890Y17070D01*
G01X-25040Y17320D02*
X-25850Y17310D01*
G01X-24220Y17340D02*
X-25040Y17320D01*
G01X-24220Y17090D02*
Y17340D01*
G01X-17300Y17570D02*
X-17540Y16760D01*
G01X-17260Y18700D02*
X-17300Y17570D01*
G01X-17390Y19830D02*
X-17260Y18700D01*
G01X-17550Y20180D02*
X-17390Y19830D01*
G01X-17800Y20490D02*
X-17550Y20180D01*
G01X-18340Y20860D02*
X-17800Y20490D01*
G01X-19120Y20990D02*
X-18340Y20860D01*
G01X-19980Y20950D02*
X-19120Y20990D01*
G01X-20630Y20700D02*
X-19980Y20950D01*
G01X-21080Y20220D02*
X-20630Y20700D01*
G01X-21360Y19520D02*
X-21080Y20220D01*
G01X-21440Y18500D02*
X-21360Y19520D01*
G01X-21390Y17460D02*
X-21440Y18500D01*
G01X-21230Y16940D02*
X-21390Y17460D01*
G01X-23120Y18530D02*
X-23010Y17210D01*
G01X-22990Y19860D02*
X-23120Y18530D01*
G01X-22610Y20980D02*
X-22990Y19860D01*
G01X-22140Y21590D02*
X-22610Y20980D01*
G01X-21550Y22060D02*
X-22140Y21590D01*
G01X-20790Y22320D02*
X-21550Y22060D01*
G01X-19810Y22400D02*
X-20790Y22320D01*
G01X-18770Y22330D02*
X-19810Y22400D01*
G01X-18030Y22060D02*
X-18770Y22330D01*
G01X-17450Y21680D02*
X-18030Y22060D01*
G01X-17240Y21470D02*
X-17450Y21680D01*
G01X-17240Y23360D02*
Y21470D01*
G01Y25250D02*
Y23360D01*
G01X-16440Y25250D02*
X-17240D01*
G01X-15640D02*
X-16440D01*
G01X-5350Y14600D02*
X-4520D01*
G01X-5350Y19950D02*
Y14600D01*
G01X-10410Y15810D02*
X-11190Y15940D01*
G01X-9640Y15820D02*
X-10410Y15810D01*
G01X-8980Y16060D02*
X-9640Y15820D01*
G01X-8580Y16460D02*
X-8980Y16060D01*
G01X-8500Y16890D02*
X-8580Y16460D01*
G01X-11850Y16380D02*
X-12130Y16700D01*
G01X-11530Y16100D02*
X-11850Y16380D01*
G01X-11190Y15940D02*
X-11530Y16100D01*
G01X-9710Y14500D02*
X-8690Y14590D01*
G01X-10740Y14550D02*
X-9710Y14500D01*
G01X-11910Y14960D02*
X-10740Y14550D01*
G01X-12380Y15230D02*
X-11910Y14960D01*
G01X-12660Y15500D02*
X-12380Y15230D01*
G01X-12790Y15630D02*
X-12660Y15500D01*
G01X-12890Y15380D02*
X-12790Y15630D01*
G01X-13040Y14870D02*
X-12890Y15380D01*
G01X-13110Y14600D02*
X-13040Y14870D01*
G01X-13580Y14600D02*
X-13110D01*
G01X-14040D02*
X-13580D01*
G01X-14040Y17170D02*
Y14600D01*
G01X-6850Y16220D02*
X-6820Y16840D01*
G01X-6990Y15830D02*
X-6850Y16220D01*
G01X-7270Y15400D02*
X-6990Y15830D01*
G01X-7640Y15050D02*
X-7270Y15400D01*
G01X-8120Y14780D02*
X-7640Y15050D01*
G01X-8690Y14590D02*
X-8120Y14780D01*
G01X-15640Y14600D02*
Y19920D01*
G01X-5350Y25300D02*
Y19950D01*
G01X-4520Y25300D02*
X-5350D01*
G01X-8560Y17200D02*
X-8500Y16890D01*
G01X-8750Y17440D02*
X-8560Y17200D01*
G01X-9090Y17630D02*
X-8750Y17440D01*
G01X-9590Y17770D02*
X-9090Y17630D01*
G01X-12390Y18110D02*
X-9590Y17770D01*
G01X-12410Y17740D02*
X-12390Y18110D01*
G01X-12270Y17060D02*
X-12410Y17740D01*
G01X-12130Y16700D02*
X-12270Y17060D01*
G01X-13990Y19930D02*
X-14040Y17170D01*
G01X-13890Y20540D02*
X-13990Y19930D01*
G01X-13730Y20990D02*
X-13890Y20540D01*
G01X-13450Y21440D02*
X-13730Y20990D01*
G01X-13060Y21810D02*
X-13450Y21440D01*
G01X-12570Y22090D02*
X-13060Y21810D01*
G01X-11980Y22280D02*
X-12570Y22090D01*
G01X-10440Y22380D02*
X-11980Y22280D01*
G01X-9420Y22360D02*
X-10440Y22380D01*
G01X-8880Y22260D02*
X-9420Y22360D01*
G01X-8110Y21930D02*
X-8880Y22260D01*
G01X-7560Y21450D02*
X-8110Y21930D01*
G01X-7200Y20800D02*
X-7560Y21450D01*
G01X-7030Y19930D02*
X-7200Y20800D01*
G01X-6990Y19560D02*
X-7030Y19930D01*
G01X-7800Y19560D02*
X-6990D01*
G01X-8560Y19600D02*
X-7800Y19560D01*
G01X-8650Y19740D02*
X-8560Y19600D01*
G01X-8680Y20030D02*
X-8650Y19740D01*
G01X-8880Y20530D02*
X-8680Y20030D01*
G01X-9290Y20870D02*
X-8880Y20530D01*
G01X-9750Y21020D02*
X-9290Y20870D01*
G01X-10300Y21090D02*
X-9750Y21020D01*
G01X-10890Y21080D02*
X-10300Y21090D01*
G01X-11440Y20980D02*
X-10890Y21080D01*
G01X-11800Y20810D02*
X-11440Y20980D01*
G01X-12080Y20540D02*
X-11800Y20810D01*
G01X-12270Y20190D02*
X-12080Y20540D01*
G01X-12370Y19740D02*
X-12270Y20190D01*
G01X-12380Y19450D02*
X-12370Y19740D01*
G01X-12270Y19380D02*
X-12370Y19450D01*
G01X-10780Y19220D02*
X-12270Y19380D01*
G01X-8850Y18960D02*
X-10780Y19220D01*
G01X-8180Y18770D02*
X-8850Y18960D01*
G01X-7640Y18500D02*
X-8180Y18770D01*
G01X-7230Y18170D02*
X-7640Y18500D01*
G01X-6950Y17770D02*
X-7230Y18170D01*
G01X-6840Y17450D02*
X-6950Y17770D01*
G01X-6820Y16840D02*
X-6840Y17450D01*
G01X-15640Y19920D02*
Y25250D01*
G01X75000Y0D02*
Y2070D01*
G01Y1500D02*
X74890Y1760D01*
X74690Y1960D01*
X74420Y2070D01*
X74160Y1960D01*
X73970Y1760D01*
X73850Y1500D01*
Y0D01*
G01Y1500D02*
X73730Y1760D01*
X73540Y1960D01*
X73280Y2070D01*
X73010Y1960D01*
X72810Y1760D01*
X72700Y1450D01*
Y0D01*
G01X70750D02*
X70980Y50D01*
X71210Y260D01*
X71360Y620D01*
X71440Y1030D01*
X71360Y1450D01*
X71210Y1810D01*
X70980Y2010D01*
X70750Y2070D01*
X70520Y2010D01*
X70290Y1810D01*
X70140Y1450D01*
X70100Y1030D01*
X70140Y620D01*
X70290Y260D01*
X70520Y50D01*
X70750Y0D01*
G01X68220Y360D02*
X68030Y150D01*
X67770Y0D01*
X67530D01*
X67300Y100D01*
X67150Y260D01*
X67080Y460D01*
X67110Y780D01*
X67270Y930D01*
X67960Y1240D01*
X68110Y1600D01*
X68030Y1860D01*
X67880Y2010D01*
X67650Y2070D01*
X67420Y2010D01*
X67190Y1860D01*
G01X63860Y0D02*
Y2070D01*
G01Y1710D02*
X64010Y1910D01*
X64240Y2010D01*
X64510Y2070D01*
X64780Y1960D01*
X65010Y1760D01*
X65160Y1450D01*
X65240Y1030D01*
X65160Y620D01*
X65010Y310D01*
X64780Y100D01*
X64510Y0D01*
X64240Y50D01*
X64010Y210D01*
X63860Y410D01*
G01X60840Y1810D02*
X61100Y2010D01*
X61330Y2070D01*
X61640Y1960D01*
X61870Y1760D01*
X62020Y1390D01*
X62060Y1030D01*
X62020Y670D01*
X61870Y360D01*
X61640Y100D01*
X61330Y0D01*
X61070Y100D01*
X60840Y310D01*
G01X59500Y-1030D02*
X57200D01*
G01X55250Y3100D02*
Y0D01*
G01X55790Y2070D02*
X54710D01*
G01X52150D02*
Y0D01*
G01Y2890D02*
X52230Y2940D01*
Y3050D01*
X52150Y3100D01*
X52070Y3050D01*
Y2940D01*
X52150Y2890D01*
G01X49050Y0D02*
Y3100D01*
G01X46520Y1390D02*
X45300D01*
X45410Y1760D01*
X45600Y1960D01*
X45870Y2070D01*
X46140Y2010D01*
X46370Y1860D01*
X46520Y1500D01*
X46600Y1190D01*
Y880D01*
X46520Y570D01*
X46330Y260D01*
X46100Y50D01*
X45830Y0D01*
X45570Y100D01*
X45300Y410D01*
G01X43540Y0D02*
Y3100D01*
G01Y1550D02*
X43350Y1860D01*
X43120Y2010D01*
X42890Y2070D01*
X42540Y1960D01*
X42310Y1760D01*
X42160Y1390D01*
Y980D01*
X42240Y570D01*
X42390Y260D01*
X42660Y50D01*
X42890Y0D01*
X43120Y50D01*
X43350Y210D01*
X43540Y460D01*
G01X40290Y0D02*
Y2070D01*
G01Y1650D02*
X40100Y1860D01*
X39900Y2010D01*
X39630Y2070D01*
X39440Y2010D01*
X39210Y1860D01*
G01X36650Y2070D02*
Y0D01*
G01Y2890D02*
X36730Y2940D01*
Y3050D01*
X36650Y3100D01*
X36570Y3050D01*
Y2940D01*
X36650Y2890D01*
G01X32860Y3100D02*
Y0D01*
G01Y460D02*
X33010Y210D01*
X33240Y50D01*
X33510Y0D01*
X33820Y100D01*
X34050Y360D01*
X34200Y670D01*
X34240Y1030D01*
X34200Y1390D01*
X34050Y1710D01*
X33820Y1960D01*
X33510Y2070D01*
X33240Y2010D01*
X33050Y1910D01*
X32860Y1710D01*
G01X30990Y-780D02*
X30720Y-980D01*
X30410Y-1030D01*
X30140Y-980D01*
X29910Y-720D01*
X29760Y-360D01*
Y2070D01*
G01Y1650D02*
X29910Y1860D01*
X30140Y2010D01*
X30410Y2070D01*
X30720Y1960D01*
X30910Y1760D01*
X31060Y1390D01*
X31140Y1030D01*
X31100Y720D01*
X30950Y360D01*
X30720Y100D01*
X30410Y0D01*
X30180Y50D01*
X29910Y260D01*
X29760Y460D01*
G01X27920Y1390D02*
X26700D01*
X26810Y1760D01*
X27000Y1960D01*
X27270Y2070D01*
X27540Y2010D01*
X27770Y1860D01*
X27920Y1500D01*
X28000Y1190D01*
Y880D01*
X27920Y570D01*
X27730Y260D01*
X27500Y50D01*
X27230Y0D01*
X26970Y100D01*
X26700Y410D01*
G01X21920Y0D02*
Y3100D01*
X20960D01*
X20650Y2940D01*
X20460Y2740D01*
X20380Y2320D01*
X20460Y1910D01*
X20690Y1650D01*
X20960Y1500D01*
X21920D01*
G01X20960D02*
X20380Y0D01*
G01X18620Y1390D02*
X17400D01*
X17510Y1760D01*
X17700Y1960D01*
X17970Y2070D01*
X18240Y2010D01*
X18470Y1860D01*
X18620Y1500D01*
X18700Y1190D01*
Y880D01*
X18620Y570D01*
X18430Y260D01*
X18200Y50D01*
X17930Y0D01*
X17670Y100D01*
X17400Y410D01*
G01X15640Y2070D02*
X14950Y0D01*
X14260Y2070D01*
G01X11850Y0D02*
Y3100D01*
X12310Y2480D01*
G01Y0D02*
X11390D01*
G01X8750Y-100D02*
X8830Y-50D01*
Y50D01*
X8750Y100D01*
X8670Y50D01*
Y-50D01*
X8750Y-100D01*
G01X5650Y3100D02*
X5960Y3000D01*
X6190Y2740D01*
X6340Y2430D01*
X6460Y2010D01*
X6490Y1550D01*
X6460Y1080D01*
X6340Y670D01*
X6190Y360D01*
X5960Y100D01*
X5650Y0D01*
X5340Y100D01*
X5110Y360D01*
X4960Y670D01*
X4840Y1080D01*
X4810Y1550D01*
X4840Y2010D01*
X4960Y2430D01*
X5110Y2740D01*
X5340Y3000D01*
X5650Y3100D01*
G01X-3700Y14600D02*
Y19950D01*
G01X-4520Y14600D02*
X-3700D01*
G01X4880Y14500D02*
X5970Y14550D01*
G01X3810Y14570D02*
X4880Y14500D01*
G01X2940Y14880D02*
X3810Y14570D01*
G01X2260Y15360D02*
X2940Y14880D01*
G01X1820Y15930D02*
X2260Y15360D01*
G01X1580Y16600D02*
X1820Y15930D01*
G01X3510Y16490D02*
X3320Y16870D01*
G01X3830Y16200D02*
X3510Y16490D01*
G01X4260Y16000D02*
X3830Y16200D01*
G01X4760Y15910D02*
X4260Y16000D01*
G01X5320Y15930D02*
X4760Y15910D01*
G01X6110Y16180D02*
X5320Y15930D01*
G01X-3700Y25300D02*
X-4520D01*
G01X-3700Y19950D02*
Y25300D01*
G01X1480Y17320D02*
X1580Y16600D01*
G01X1480Y17650D02*
Y17320D01*
G01X2300Y17650D02*
X1480D01*
G01X3130D02*
X2300D01*
G01X3160Y17500D02*
X3130Y17650D01*
G01X3320Y16870D02*
X3160Y17500D01*
G01X4990Y21030D02*
X5840Y20930D01*
G01X4170D02*
X4990Y21030D01*
G01X3880Y20780D02*
X4170Y20930D01*
G01X3620Y20530D02*
X3880Y20780D01*
G01X3330Y20060D02*
X3620Y20530D01*
G01X3160Y19390D02*
X3330Y20060D01*
G01X3130Y19200D02*
X3160Y19390D01*
G01X2300Y19200D02*
X3130D01*
G01X1480D02*
X2300D01*
G01X1480Y19530D02*
Y19200D01*
G01X1570Y20230D02*
X1480Y19530D01*
G01X1820Y20910D02*
X1570Y20230D01*
G01X2120Y21350D02*
X1820Y20910D01*
G01X2550Y21750D02*
X2120Y21350D01*
G01X3060Y22060D02*
X2550Y21750D01*
G01X3630Y22270D02*
X3060Y22060D01*
G01X4950Y22420D02*
X3630Y22270D01*
G01X6290D02*
X4950Y22420D01*
G01X16370Y14600D02*
X17190D01*
G01X15540D02*
X16370D01*
G01X15530Y17170D02*
X15540Y14600D01*
G01X11710D02*
Y16730D01*
G01X10910Y14600D02*
X11710D01*
G01X10100D02*
X10910D01*
G01X10120Y17350D02*
X10100Y14600D01*
G01X6650Y16660D02*
X6110Y16180D01*
G01X8240Y16070D02*
X8620Y17000D01*
G01X7660Y15340D02*
X8240Y16070D01*
G01X6900Y14830D02*
X7660Y15340D01*
G01X5970Y14550D02*
X6900Y14830D01*
G01X15460Y19760D02*
X15530Y17170D01*
G01X15350Y20210D02*
X15460Y19760D01*
G01X15120Y20510D02*
X15350Y20210D01*
G01X14790Y20770D02*
X15120Y20510D01*
G01X14340Y20950D02*
X14790Y20770D01*
G01X13800Y21030D02*
X14340Y20950D01*
G01X13200Y21010D02*
X13800Y21030D01*
G01X12580Y20860D02*
X13200Y21010D01*
G01X12160Y20560D02*
X12580Y20860D01*
G01X11890Y20090D02*
X12160Y20560D01*
G01X11760Y19400D02*
X11890Y20090D01*
G01X11710Y16730D02*
X11760Y19400D01*
G01X10150Y19770D02*
X10120Y17350D01*
G01X10250Y20510D02*
X10150Y19770D01*
G01X10520Y21190D02*
X10250Y20510D01*
G01X10910Y21710D02*
X10520Y21190D01*
G01X11310Y22030D02*
X10910Y21710D01*
G01X11790Y22240D02*
X11310Y22030D01*
G01X12390Y22360D02*
X11790Y22240D01*
G01X13140Y22400D02*
X12390Y22360D01*
G01X14110Y22350D02*
X13140Y22400D01*
G01X14880Y22140D02*
X14110Y22350D01*
G01X15410Y21850D02*
X14880Y22140D01*
G01X15820Y21470D02*
X15410Y21850D01*
G01X15950Y21300D02*
X15820Y21470D01*
G01X16000Y21430D02*
X15950Y21300D01*
G01X16160Y21930D02*
X16000Y21430D01*
G01X16280Y22300D02*
X16160Y21930D01*
G01X16740Y22300D02*
X16280D01*
G01X6970Y17410D02*
X6650Y16660D01*
G01X7070Y18450D02*
X6970Y17410D01*
G01X7030Y19160D02*
X7070Y18450D01*
G01X6910Y19730D02*
X7030Y19160D01*
G01X6710Y20200D02*
X6910Y19730D01*
G01X6410Y20570D02*
X6710Y20200D01*
G01X5840Y20930D02*
X6410Y20570D01*
G01X7110Y21950D02*
X6290Y22270D01*
G01X7770Y21450D02*
X7110Y21950D01*
G01X8280Y20760D02*
X7770Y21450D01*
G01X8620Y19890D02*
X8280Y20760D01*
G01X8710Y19370D02*
X8620Y19890D01*
G01X8730Y18450D02*
X8710Y19370D01*
G01Y17520D02*
X8730Y18450D01*
G01X8620Y17000D02*
X8710Y17520D01*
G01X17190Y14600D02*
Y18450D01*
G01X22640Y11500D02*
X24000Y11570D01*
G01X21290Y11590D02*
X22640Y11500D01*
G01X20480Y11850D02*
X21290Y11590D01*
G01X19850Y12250D02*
X20480Y11850D01*
G01X19390Y12790D02*
X19850Y12250D01*
G01X19110Y13480D02*
X19390Y12790D01*
G01X19020Y14420D02*
X19110Y13480D01*
G01X19000Y18090D02*
X19020Y14420D01*
G01X21120Y16350D02*
X20840Y16770D01*
G01X21560Y16060D02*
X21120Y16350D01*
G01X21930Y15940D02*
X21560Y16060D01*
G01X22600Y15910D02*
X21930Y15940D01*
G01X23530Y15990D02*
X22600Y15910D01*
G01X24070Y16300D02*
X23530Y15990D01*
G01X24390Y16850D02*
X24070Y16300D01*
G01X26020Y16490D02*
X26090Y17280D01*
G01X25760Y15770D02*
X26020Y16490D01*
G01X25360Y15210D02*
X25760Y15770D01*
G01X24820Y14810D02*
X25360Y15210D01*
G01X24130Y14570D02*
X24820Y14810D01*
G01X23060Y14490D02*
X24130Y14570D01*
G01X22310Y14530D02*
X23060Y14490D01*
G01X21700Y14660D02*
X22310Y14530D01*
G01X21200Y14870D02*
X21700Y14660D01*
G01X20800Y15170D02*
X21200Y14870D01*
G01X20590Y15390D02*
X20800Y15170D01*
G01X20620Y14690D02*
X20590Y15390D01*
G01X20680Y14010D02*
X20620Y14690D01*
G01X20810Y13540D02*
X20680Y14010D01*
G01X21040Y13230D02*
X20810Y13540D01*
G01X21400Y13000D02*
X21040Y13230D01*
G01X22140Y12790D02*
X21400Y13000D01*
G01X23090Y12790D02*
X22140D01*
G01X23710Y12890D02*
X23090Y12790D01*
G01X24140Y13080D02*
X23710Y12890D01*
G01X24420Y13370D02*
X24140Y13080D01*
G01X24560Y13780D02*
X24420Y13370D01*
G01X24600Y13980D02*
X24560Y13780D01*
G01X25430Y13980D02*
X24600D01*
G01X26260D02*
X25430D01*
G01X26220Y13610D02*
X26260Y13980D01*
G01X26030Y12850D02*
X26220Y13610D01*
G01X25610Y12260D02*
X26030Y12850D01*
G01X24930Y11840D02*
X25610Y12260D01*
G01X24000Y11570D02*
X24930Y11840D01*
G01X17190Y22300D02*
X16740D01*
G01X17190Y18450D02*
Y22300D01*
G01X19000D02*
Y18090D01*
G01X19810Y22300D02*
X19000D01*
G01X20610D02*
X19810D01*
G01X20610Y20190D02*
Y22300D01*
G01X20650Y17730D02*
X20610Y20190D01*
G01X20730Y17150D02*
X20650Y17730D01*
G01X20840Y16770D02*
X20730Y17150D01*
G01X24490Y17510D02*
X24390Y16850D01*
G01X24520Y19750D02*
X24490Y17510D01*
G01X24550Y22300D02*
X24530Y19750D01*
G01X25350Y22300D02*
X24550D01*
G01X26150D02*
X25350D01*
G01X26130Y19570D02*
X26150Y22300D01*
G01X26090Y17280D02*
X26130Y19570D01*
G01X37520Y14600D02*
Y16730D01*
G01X36710Y14600D02*
X37520D01*
G01X35910D02*
X36710D01*
G01X35920Y17350D02*
X35910Y14600D01*
G01X30970Y14500D02*
X32170Y14570D01*
G01X29800D02*
X30970Y14500D01*
G01X29080Y14770D02*
X29800Y14570D01*
G01X28480Y15060D02*
X29080Y14770D01*
G01X28000Y15460D02*
X28480Y15060D01*
G01X27660Y15950D02*
X28000Y15460D01*
G01X27530Y16280D02*
X27660Y15950D01*
G01X27510Y16840D02*
X27530Y16280D01*
G01X29160Y16490D02*
X29100Y16750D01*
G01X29350Y16250D02*
X29160Y16490D01*
G01X29670Y16050D02*
X29350Y16250D01*
G01X30390Y15840D02*
X29670Y16050D01*
G01X31190Y15810D02*
X30390Y15840D01*
G01X31940Y15950D02*
X31190Y15810D01*
G01X32510Y16250D02*
X31940Y15950D01*
G01X32820Y16620D02*
X32510Y16250D01*
G01X34540Y16510D02*
X34620Y17090D01*
G01X34330Y15940D02*
X34540Y16510D01*
G01X33990Y15450D02*
X34330Y15940D01*
G01X33520Y15060D02*
X33990Y15450D01*
G01X32910Y14760D02*
X33520Y15060D01*
G01X32170Y14570D02*
X32910Y14760D01*
G01X37960Y20560D02*
X38390Y20860D01*
G01X37700Y20090D02*
X37960Y20560D01*
G01X37570Y19400D02*
X37700Y20090D01*
G01X37520Y16730D02*
X37570Y19400D01*
G01X35960Y19770D02*
X35920Y17350D01*
G01X36060Y20510D02*
X35960Y19770D01*
G01X36320Y21190D02*
X36060Y20510D01*
G01X36710Y21710D02*
X36320Y21190D01*
G01X37110Y22030D02*
X36710Y21710D01*
G01X37600Y22240D02*
X37110Y22030D01*
G01X38190Y22360D02*
X37600Y22240D01*
G01X38950Y22400D02*
X38190Y22360D01*
G01X27530Y17420D02*
X27510Y16840D01*
G01X27660Y17740D02*
X27530Y17420D01*
G01X28010Y18180D02*
X27660Y17740D01*
G01X28500Y18520D02*
X28010Y18180D01*
G01X29240Y18800D02*
X28500Y18520D01*
G01X30520Y19090D02*
X29240Y18800D01*
G01X32010Y19450D02*
X30530Y19090D01*
G01X32610Y19770D02*
X32010Y19450D01*
G01X32790Y20010D02*
X32610Y19770D01*
G01X32810Y20340D02*
X32790Y20010D01*
G01X32670Y20690D02*
X32810Y20340D01*
G01X32320Y20930D02*
X32670Y20690D01*
G01X31760Y21070D02*
X32320Y20930D01*
G01X31000Y21100D02*
X31760Y21070D01*
G01X30390Y21060D02*
X31000Y21100D01*
G01X30000Y20910D02*
X30390Y21060D01*
G01X29520Y20570D02*
X30000Y20910D01*
G01X29330Y20180D02*
X29520Y20570D01*
G01X29240Y19760D02*
X29330Y20180D01*
G01X29240Y19610D02*
Y19760D01*
G01X28430Y19610D02*
X29240D01*
G01X27630D02*
X28430D01*
G01X27660Y19910D02*
X27630Y19610D01*
G01X27860Y20790D02*
X27660Y19910D01*
G01X28250Y21460D02*
X27860Y20790D01*
G01X28860Y21950D02*
X28250Y21460D01*
G01X29710Y22290D02*
X28860Y21950D01*
G01X31140Y22390D02*
X29710Y22290D01*
G01X32580Y22280D02*
X31140Y22390D01*
G01X33160Y22080D02*
X32580Y22280D01*
G01X33630Y21810D02*
X33160Y22080D01*
G01X34000Y21480D02*
X33630Y21810D01*
G01X34270Y21070D02*
X34000Y21480D01*
G01X34410Y20700D02*
X34270Y21070D01*
G01X34460Y20230D02*
X34410Y20700D01*
G01X34350Y19370D02*
X34460Y20230D01*
G01X34160Y19030D02*
X34350Y19370D01*
G01X33870Y18750D02*
X34160Y19030D01*
G01X32890Y18280D02*
X33870Y18750D01*
G01X31310Y17880D02*
X32890Y18280D01*
G01X29740Y17470D02*
X31310Y17880D01*
G01X29370Y17270D02*
X29740Y17470D01*
G01X29180Y17020D02*
X29370Y17270D01*
G01X29100Y16750D02*
X29180Y17020D01*
G01X32960Y17070D02*
X32820Y16620D01*
G01X32990Y17310D02*
X32960Y17070D01*
G01X33810Y17320D02*
X32990Y17310D01*
G01X34620Y17340D02*
X33810Y17320D01*
G01X34620Y17090D02*
Y17340D01*
G01X43000Y14600D02*
Y18450D01*
G01X42170Y14600D02*
X43000D01*
G01X41350D02*
X42170D01*
G01X41330Y17170D02*
X41350Y14600D01*
G01X48220Y15810D02*
X47440Y15940D01*
G01X48990Y15820D02*
X48220Y15810D01*
G01X49660Y16060D02*
X48990Y15820D01*
G01X46790Y16380D02*
X46510Y16700D01*
G01X47110Y16100D02*
X46790Y16380D01*
G01X47440Y15940D02*
X47110Y16100D01*
G01X48930Y14500D02*
X49950Y14590D01*
G01X47900Y14550D02*
X48930Y14500D01*
G01X46720Y14960D02*
X47900Y14550D01*
G01X46260Y15230D02*
X46720Y14960D01*
G01X45970Y15500D02*
X46260Y15230D01*
G01X45850Y15630D02*
X45970Y15500D01*
G01X45750Y15380D02*
X45850Y15630D01*
G01X45600Y14870D02*
X45750Y15380D01*
G01X45520Y14600D02*
X45600Y14870D01*
G01X45060Y14600D02*
X45520D01*
G01X44600D02*
X45060D01*
G01X44600Y17170D02*
Y14600D01*
G01X41270Y19760D02*
X41330Y17170D01*
G01X41150Y20210D02*
X41270Y19760D01*
G01X40920Y20510D02*
X41150Y20210D01*
G01X40590Y20770D02*
X40920Y20510D01*
G01X40140Y20950D02*
X40590Y20770D01*
G01X39610Y21030D02*
X40140Y20950D01*
G01X39000Y21010D02*
X39610Y21030D01*
G01X38390Y20860D02*
X39000Y21010D01*
G01X39910Y22350D02*
X38950Y22400D01*
G01X40690Y22140D02*
X39910Y22350D01*
G01X41220Y21850D02*
X40690Y22140D01*
G01X41630Y21470D02*
X41220Y21850D01*
G01X41750Y21300D02*
X41630Y21470D01*
G01X41800Y21430D02*
X41750Y21300D01*
G01X41970Y21930D02*
X41800Y21430D01*
G01X42090Y22300D02*
X41970Y21930D01*
G01X42540Y22300D02*
X42090D01*
G01X43000D02*
X42540D01*
G01X43000Y18450D02*
Y22300D01*
G01X49050Y17770D02*
X49550Y17630D01*
G01X46250Y18110D02*
X49050Y17770D01*
G01X46230Y17740D02*
X46250Y18110D01*
G01X46370Y17060D02*
X46230Y17740D01*
G01X46510Y16700D02*
X46370Y17060D01*
G01X44650Y19930D02*
X44600Y17170D01*
G01X44740Y20540D02*
X44650Y19930D01*
G01X44910Y20990D02*
X44740Y20540D01*
G01X45190Y21440D02*
X44910Y20990D01*
G01X45580Y21810D02*
X45190Y21440D01*
G01X46070Y22090D02*
X45580Y21810D01*
G01X46650Y22280D02*
X46070Y22090D01*
G01X48190Y22380D02*
X46650Y22280D01*
G01X49220Y22360D02*
X48190Y22380D01*
G01X48890Y21020D02*
X49350Y20870D01*
G01X48330Y21090D02*
X48890Y21020D01*
G01X47750Y21080D02*
X48330Y21090D01*
G01X47200Y20980D02*
X47750Y21080D01*
G01X46830Y20810D02*
X47200Y20980D01*
G01X46560Y20540D02*
X46830Y20810D01*
G01X46370Y20190D02*
X46560Y20540D01*
G01X46270Y19740D02*
X46370Y20190D01*
G01X46260Y19450D02*
X46270Y19740D01*
G01X46360Y19380D02*
X46260Y19450D01*
G01X47860Y19220D02*
X46360Y19380D01*
G01X49790Y18960D02*
X47860Y19220D01*
G01X50060Y16460D02*
X49660Y16060D01*
G01X50130Y16890D02*
X50060Y16460D01*
G01X51790Y16220D02*
X51810Y16840D01*
G01X51650Y15830D02*
X51790Y16220D01*
G01X51370Y15400D02*
X51650Y15830D01*
G01X50990Y15050D02*
X51370Y15400D01*
G01X50520Y14780D02*
X50990Y15050D01*
G01X49950Y14590D02*
X50520Y14780D01*
G01X57750Y9000D02*
X60900Y8960D01*
G01X57300Y9120D02*
X57750Y9000D01*
G01X57070Y9350D02*
X57300Y9120D01*
G01X56870Y9610D02*
X57070Y9350D01*
G01X56780Y10550D02*
X56870Y9610D01*
G01X56750Y18730D02*
X56780Y10550D01*
G01X59230Y11770D02*
Y18730D01*
G01X59360Y11630D02*
X59230Y11770D01*
G01X59620Y11440D02*
X59360Y11630D01*
G01X61950Y11390D02*
X59620Y11440D01*
G01X50070Y17200D02*
X50130Y16890D01*
G01X49890Y17440D02*
X50070Y17200D01*
G01X49550Y17630D02*
X49890Y17440D01*
G01X49760Y22260D02*
X49220Y22360D01*
G01X50520Y21930D02*
X49760Y22260D01*
G01X51080Y21450D02*
X50520Y21930D01*
G01X51430Y20800D02*
X51080Y21450D01*
G01X51610Y19930D02*
X51430Y20800D01*
G01X51650Y19560D02*
X51610Y19930D01*
G01X50840Y19560D02*
X51650D01*
G01X50080Y19600D02*
X50840Y19560D01*
G01X49990Y19740D02*
X50080Y19600D01*
G01X49950Y20030D02*
X49990Y19740D01*
G01X49760Y20530D02*
X49950Y20030D01*
G01X49350Y20870D02*
X49760Y20530D01*
G01X50460Y18770D02*
X49790Y18960D01*
G01X51000Y18500D02*
X50460Y18770D01*
G01X51410Y18170D02*
X51000Y18500D01*
G01X51690Y17770D02*
X51410Y18170D01*
G01X51790Y17450D02*
X51690Y17770D01*
G01X51810Y16840D02*
X51790Y17450D01*
G01X56780Y26960D02*
X56750Y18730D01*
G01X56880Y27880D02*
X56780Y26960D01*
G01X59620Y26020D02*
X61950Y26070D01*
G01X59360Y25840D02*
X59620Y26020D01*
G01X59230Y25700D02*
X59360Y25840D01*
G01X59230Y18730D02*
Y25700D01*
G01X57080Y28140D02*
X56880Y27880D01*
G01X57320Y28350D02*
X57080Y28140D01*
G01X57770Y28460D02*
X57320Y28350D01*
G01X60900Y28500D02*
X57770Y28460D01*
G01X64150Y8960D02*
Y10170D01*
G01X60900Y8960D02*
X64150D01*
G01Y11390D02*
X61950D01*
G01X64150Y10170D02*
Y11390D01*
G01X68900Y8960D02*
X72150D01*
G01X68900Y10170D02*
Y8960D01*
G01Y11390D02*
Y10170D01*
G01X71100Y11390D02*
X68900D01*
G01X64150Y27290D02*
Y28500D01*
G01Y26070D02*
Y27290D01*
G01X61950Y26070D02*
X64150D01*
G01X68900D02*
X71100D01*
G01X68900Y27290D02*
Y26070D01*
G01Y28510D02*
Y27290D01*
G01X64150Y28500D02*
X60900D01*
G01X72200Y28490D02*
X68900Y28510D01*
G01X75410Y8960D02*
X75680Y9100D01*
G01X72150Y8960D02*
X75410D01*
G01X73270Y11430D02*
X71100Y11390D01*
G01X73610Y11530D02*
X73270Y11430D01*
G01X73760Y11710D02*
X73610Y11530D01*
G01X73820Y11930D02*
X73760Y11710D01*
G01X73850Y12740D02*
X73820Y11930D01*
G01X73870Y18730D02*
X73850Y12740D01*
G01X76320Y10060D02*
X76340Y18970D01*
G01X76110Y9500D02*
X76320Y10060D01*
G01X75680Y9100D02*
X76110Y9500D01*
G01X73850Y24720D02*
X73870Y18730D01*
G01X73820Y25540D02*
X73850Y24720D01*
G01X73760Y25750D02*
X73820Y25540D01*
G01X73610Y25940D02*
X73760Y25750D01*
G01X73270Y26030D02*
X73610Y25940D01*
G01X71100Y26070D02*
X73270Y26030D01*
G01X76340Y18970D02*
X76320Y27600D01*
G01X75500Y28480D02*
X72200Y28490D01*
G01X75750Y28320D02*
X75500Y28480D01*
G01X76160Y27880D02*
X75750Y28320D01*
G01X76320Y27600D02*
X76160Y27880D01*
M02*
