G04 Output by ViewMate Deluxe V11.16.76  PentaLogix*
G04 Wed Nov 29 11:23:47 2023*
%IPPOS*%
%FSLAX25Y25*%
%MOIN*%
%ADD108C,0.003*%

%LPD*%
X0Y0D2*D108*G1X76320Y271840D2*X76160Y272120D1*X75750Y272560*X75500Y272720*X72200Y272730*X76340Y263210D2*X76320Y271840D1*X71100Y270310D2*X73270Y270270D1*X73610Y270180*X73760Y269990*X73820Y269780*X73850Y268960*X73870Y262970*X75680Y253340D2*X76110Y253740D1*X76320Y254300*X76340Y263210*X73870Y262970D2*X73850Y256980D1*X73820Y256170*X73760Y255950*X73610Y255770*X73270Y255670*X71100Y255630*X72150Y253200D2*X75410D1*X75680Y253340*X72200Y272730D2*X68900Y272750D1*X64150Y272740D2*X60900D1*X68900Y272750D2*Y271530D1*Y270310*X71100*X61950D2*X64150D1*Y271530*Y272740*X71100Y255630D2*X68900D1*Y254410*Y253200*X72150*X64150Y254410D2*Y255630D1*X61950*X60900Y253200D2*X64150D1*Y254410*X60900Y272740D2*X57770Y272700D1*X57320Y272590*X57080Y272380*X56880Y272120*X59230Y262970D2*Y269940D1*X59360Y270080*X59620Y270260*X61950Y270310*X56880Y272120D2*X56780Y271200D1*X56750Y262970*X51810Y261080D2*X51790Y261690D1*X51690Y262010*X51410Y262410*X51000Y262740*X50460Y263010*X49790Y263200*X49350Y265110D2*X49760Y264770D1*X49950Y264270*X49990Y263980*X50080Y263840*X50840Y263800*X51650*X51610Y264170*X51430Y265040*X51080Y265690*X50520Y266170*X49760Y266500*X49220Y266600*X49550Y261870D2*X49890Y261680D1*X50070Y261440*X50130Y261130*X61950Y255630D2*X59620Y255680D1*X59360Y255870*X59230Y256010*Y262970*X56750D2*X56780Y254790D1*X56870Y253850*X57070Y253590*X57300Y253360*X57750Y253240*X60900Y253200*X49950Y258830D2*X50520Y259020D1*X50990Y259290*X51370Y259640*X51650Y260070*X51790Y260460*X51810Y261080*X50130Y261130D2*X50060Y260700D1*X49660Y260300*X49790Y263200D2*X47860Y263460D1*X46360Y263620*X46260Y263690*X46270Y263980*X46370Y264430*X46560Y264780*X46830Y265050*X47200Y265220*X47750Y265320*X48330Y265330*X48890Y265260*X49350Y265110*X49220Y266600D2*X48190Y266620D1*X46650Y266520*X46070Y266330*X45580Y266050*X45190Y265680*X44910Y265230*X44740Y264780*X44650Y264170*X44600Y261410*X46510Y260940D2*X46370Y261300D1*X46230Y261980*X46250Y262350*X49050Y262010*X49550Y261870*X43000Y262690D2*Y266540D1*X42540*X42090*X41970Y266170*X41800Y265670*X41750Y265540*X41630Y265710*X41220Y266090*X40690Y266380*X39910Y266590*X38950Y266640*X38390Y265100D2*X39000Y265250D1*X39610Y265270*X40140Y265190*X40590Y265010*X40920Y264750*X41150Y264450*X41270Y264000*X41330Y261410*X44600D2*Y258840D1*X45060*X45520*X45600Y259110*X45750Y259620*X45850Y259870*X45970Y259740*X46260Y259470*X46720Y259200*X47900Y258790*X48930Y258740*X49950Y258830*X47440Y260180D2*X47110Y260340D1*X46790Y260620*X46510Y260940*X49660Y260300D2*X48990Y260060D1*X48220Y260050*X47440Y260180*X41330Y261410D2*X41350Y258840D1*X42170*X43000*Y262690*X34620Y261330D2*Y261580D1*X33810Y261560*X32990Y261550*X32960Y261310*X32820Y260860*X29100Y260990D2*X29180Y261260D1*X29370Y261510*X29740Y261710*X31310Y262120*X32890Y262520*X33870Y262990*X34160Y263270*X34350Y263610*X34460Y264470*X34410Y264940*X34270Y265310*X34000Y265720*X33630Y266050*X33160Y266320*X32580Y266520*X31140Y266630*X29710Y266530*X28860Y266190*X28250Y265700*X27860Y265030*X27660Y264150*X27630Y263850*X28430*X29240*Y264000*X29330Y264420*X29520Y264810*X30000Y265150*X30390Y265300*X31000Y265340*X31760Y265310*X32320Y265170*X32670Y264930*X32810Y264580*X32790Y264250*X32610Y264010*X32010Y263690*X30530Y263330*X30520D2*X29240Y263040D1*X28500Y262760*X28010Y262420*X27660Y261980*X27530Y261660*X27510Y261080*X38950Y266640D2*X38190Y266600D1*X37600Y266480*X37110Y266270*X36710Y265950*X36320Y265430*X36060Y264750*X35960Y264010*X35920Y261590*X37520Y260970D2*X37570Y263640D1*X37700Y264330*X37960Y264800*X38390Y265100*X32170Y258810D2*X32910Y259000D1*X33520Y259300*X33990Y259690*X34330Y260180*X34540Y260750*X34620Y261330*X32820Y260860D2*X32510Y260490D1*X31940Y260190*X31190Y260050*X30390Y260080*X29670Y260290*X29350Y260490*X29160Y260730*X29100Y260990*X27510Y261080D2*X27530Y260520D1*X27660Y260190*X28000Y259700*X28480Y259300*X29080Y259010*X29800Y258810*X30970Y258740*X32170Y258810*X35920Y261590D2*X35910Y258840D1*X36710*X37520*Y260970*X26090Y261520D2*X26130Y263810D1*X26150Y266540*X25350*X24550*X24530Y263990*X24520D2*X24490Y261750D1*X24390Y261090*X20840Y261010D2*X20730Y261390D1*X20650Y261970*X20610Y264430*Y266540*X19810*X19000*Y262330*X17190Y262690D2*Y266540D1*X16740*X24000Y255810D2*X24930Y256080D1*X25610Y256500*X26030Y257090*X26220Y257850*X26260Y258220*X25430*X24600*X24560Y258020*X24420Y257610*X24140Y257320*X23710Y257130*X23090Y257030*X22140*X21400Y257240*X21040Y257470*X20810Y257780*X20680Y258250*X20620Y258930*X20590Y259630*X20800Y259410*X21200Y259110*X21700Y258900*X22310Y258770*X23060Y258730*X24130Y258810*X24820Y259050*X25360Y259450*X25760Y260010*X26020Y260730*X26090Y261520*X24390Y261090D2*X24070Y260540D1*X23530Y260230*X22600Y260150*X21930Y260180*X21560Y260300*X21120Y260590*X20840Y261010*X19000Y262330D2*X19020Y258660D1*X19110Y257720*X19390Y257030*X19850Y256490*X20480Y256090*X21290Y255830*X22640Y255740*X24000Y255810*X17190Y258840D2*Y262690D1*X8620Y261240D2*X8710Y261760D1*X8730Y262690*X8710Y263610*X8620Y264130*X8280Y265000*X7770Y265690*X7110Y266190*X6290Y266510*X5840Y265170D2*X6410Y264810D1*X6710Y264440*X6910Y263970*X7030Y263400*X7070Y262690*X6970Y261650*X6650Y260900*X16740Y266540D2*X16280D1*X16160Y266170*X16000Y265670*X15950Y265540*X15820Y265710*X15410Y266090*X14880Y266380*X14110Y266590*X13140Y266640*X12390Y266600*X11790Y266480*X11310Y266270*X10910Y265950*X10520Y265430*X10250Y264750*X10150Y264010*X10120Y261590*X11710Y260970D2*X11760Y263640D1*X11890Y264330*X12160Y264800*X12580Y265100*X13200Y265250*X13800Y265270*X14340Y265190*X14790Y265010*X15120Y264750*X15350Y264450*X15460Y264000*X15530Y261410*X5970Y258790D2*X6900Y259070D1*X7660Y259580*X8240Y260310*X8620Y261240*X6650Y260900D2*X6110Y260420D1*X10120Y261590D2*X10100Y258840D1*X10910*X11710*Y260970*X15530Y261410D2*X15540Y258840D1*X16370*X17190*X6290Y266510D2*X4950Y266660D1*X3630Y266510*X3060Y266300*X2550Y265990*X2120Y265590*X1820Y265150*X1570Y264470*X1480Y263770*Y263440*X2300*X3130*X3160Y263630*X3330Y264300*X3620Y264770*X3880Y265020*X4170Y265170*X4990Y265270*X5840Y265170*X3320Y261110D2*X3160Y261740D1*X3130Y261890*X2300*X1480*Y261560*X1580Y260840*X-3700Y264190D2*Y269540D1*X-4520*X6110Y260420D2*X5320Y260170D1*X4760Y260150*X4260Y260240*X3830Y260440*X3510Y260730*X3320Y261110*X1580Y260840D2*X1820Y260170D1*X2260Y259600*X2940Y259120*X3810Y258810*X4880Y258740*X5970Y258790*X-4520Y258840D2*X-3700D1*Y264190*X5650Y247340D2*X5340Y247240D1*X5110Y246980*X4960Y246670*X4840Y246250*X4810Y245790*X4840Y245320*X4960Y244910*X5110Y244600*X5340Y244340*X5650Y244240*X5960Y244340*X6190Y244600*X6340Y244910*X6460Y245320*X6490Y245790*X6460Y246250*X6340Y246670*X6190Y246980*X5960Y247240*X5650Y247340*X8750Y244140D2*X8670Y244190D1*Y244290*X8750Y244340*X8830Y244290*Y244190*X8750Y244140*X12310Y244240D2*X11390D1*X12310Y246720D2*X11850Y247340D1*Y244240*X14260Y246310D2*X14950Y244240D1*X15640Y246310*X17400Y244650D2*X17670Y244340D1*X17930Y244240*X18200Y244290*X18430Y244500*X18620Y244810*X18700Y245120*Y245430*X18620Y245740*X18470Y246100*X18240Y246250*X17970Y246310*X17700Y246200*X17510Y246000*X17400Y245630*X18620*X20380Y244240D2*X20960Y245740D1*X21920D2*X20960D1*X20690Y245890*X20460Y246150*X20380Y246560*X20460Y246980*X20650Y247180*X20960Y247340*X21920*Y244240*X26700Y244650D2*X26970Y244340D1*X27230Y244240*X27500Y244290*X27730Y244500*X27920Y244810*X28000Y245120*Y245430*X27920Y245740*X27770Y246100*X27540Y246250*X27270Y246310*X27000Y246200*X26810Y246000*X26700Y245630*X27920*X29760Y244700D2*X29910Y244500D1*X30180Y244290*X30410Y244240*X30720Y244340*X30950Y244600*X31100Y244960*X31140Y245270*X31060Y245630*X30910Y246000*X30720Y246200*X30410Y246310*X30140Y246250*X29910Y246100*X29760Y245890*Y246310D2*Y243880D1*X29910Y243520*X30140Y243260*X30410Y243210*X30720Y243260*X30990Y243460*X32860Y245950D2*X33050Y246150D1*X33240Y246250*X33510Y246310*X33820Y246200*X34050Y245950*X34200Y245630*X34240Y245270*X34200Y244910*X34050Y244600*X33820Y244340*X33510Y244240*X33240Y244290*X33010Y244450*X32860Y244700*Y247340D2*Y244240D1*X36650Y247130D2*X36570Y247180D1*Y247290*X36650Y247340*X36730Y247290*Y247180*X36650Y247130*Y246310D2*Y244240D1*X39210Y246100D2*X39440Y246250D1*X39630Y246310*X39900Y246250*X40100Y246100*X40290Y245890*Y244240D2*Y246310D1*X43540Y244700D2*X43350Y244450D1*X43120Y244290*X42890Y244240*X42660Y244290*X42390Y244500*X42240Y244810*X42160Y245220*Y245630*X42310Y246000*X42540Y246200*X42890Y246310*X43120Y246250*X43350Y246100*X43540Y245790*Y244240D2*Y247340D1*X45300Y244650D2*X45570Y244340D1*X45830Y244240*X46100Y244290*X46330Y244500*X46520Y244810*X46600Y245120*Y245430*X46520Y245740*X46370Y246100*X46140Y246250*X45870Y246310*X45600Y246200*X45410Y246000*X45300Y245630*X46520*X49050Y244240D2*Y247340D1*X52150Y247130D2*X52070Y247180D1*Y247290*X52150Y247340*X52230Y247290*Y247180*X52150Y247130*Y246310D2*Y244240D1*X55790Y246310D2*X54710D1*X55250Y247340D2*Y244240D1*X59500Y243210D2*X57200D1*X60840Y244550D2*X61070Y244340D1*X61330Y244240*X61640Y244340*X61870Y244600*X62020Y244910*X62060Y245270*X62020Y245630*X61870Y246000*X61640Y246200*X61330Y246310*X61100Y246250*X60840Y246050*X63860Y244650D2*X64010Y244450D1*X64240Y244290*X64510Y244240*X64780Y244340*X65010Y244550*X65160Y244860*X65240Y245270*X65160Y245690*X65010Y246000*X64780Y246200*X64510Y246310*X64240Y246250*X64010Y246150*X63860Y245950*Y244240D2*Y246310D1*X67190Y246100D2*X67420Y246250D1*X67650Y246310*X67880Y246250*X68030Y246100*X68110Y245840*X67960Y245480*X67270Y245170*X67110Y245020*X67080Y244700*X67150Y244500*X67300Y244340*X67530Y244240*X67770*X68030Y244390*X68220Y244600*X70750Y244240D2*X70520Y244290D1*X70290Y244500*X70140Y244860*X70100Y245270*X70140Y245690*X70290Y246050*X70520Y246250*X70750Y246310*X70980Y246250*X71210Y246050*X71360Y245690*X71440Y245270*X71360Y244860*X71210Y244500*X70980Y244290*X70750Y244240*X72700D2*Y245690D1*X72810Y246000*X73010Y246200*X73280Y246310*X73540Y246200*X73730Y246000*X73850Y245740*Y244240D2*Y245740D1*X73970Y246000*X74160Y246200*X74420Y246310*X74690Y246200*X74890Y246000*X75000Y245740*Y244240D2*Y246310D1*X-15640Y264160D2*Y269490D1*X-6820Y261080D2*X-6840Y261690D1*X-6950Y262010*X-7230Y262410*X-7640Y262740*X-8180Y263010*X-8850Y263200*X-10780Y263460*X-12270Y263620*X-12370Y263690*X-12380D2*X-12370Y263980D1*X-12270Y264430*X-12080Y264780*X-11800Y265050*X-11440Y265220*X-10890Y265320*X-10300Y265330*X-9750Y265260*X-9290Y265110*X-8880Y264770*X-8680Y264270*X-8650Y263980*X-8560Y263840*X-7800Y263800*X-6990*X-7030Y264170*X-7200Y265040*X-7560Y265690*X-8110Y266170*X-8880Y266500*X-9420Y266600*X-10440Y266620*X-11980Y266520*X-12570Y266330*X-13060Y266050*X-13450Y265680*X-13730Y265230*X-13890Y264780*X-13990Y264170*X-14040Y261410*X-12130Y260940D2*X-12270Y261300D1*X-12410Y261980*X-12390Y262350*X-9590Y262010*X-9090Y261870*X-8750Y261680*X-8560Y261440*X-8500Y261130*X-4520Y269540D2*X-5350D1*Y264190*X-15640Y258840D2*Y264160D1*X-8690Y258830D2*X-8120Y259020D1*X-7640Y259290*X-7270Y259640*X-6990Y260070*X-6850Y260460*X-6820Y261080*X-14040Y261410D2*Y258840D1*X-13580*X-13110*X-13040Y259110*X-12890Y259620*X-12790Y259870*X-12660Y259740*X-12380Y259470*X-11910Y259200*X-10740Y258790*X-9710Y258740*X-8690Y258830*X-11190Y260180D2*X-11530Y260340D1*X-11850Y260620*X-12130Y260940*X-8500Y261130D2*X-8580Y260700D1*X-8980Y260300*X-9640Y260060*X-10410Y260050*X-11190Y260180*X-5350Y264190D2*Y258840D1*X-4520*X-15640Y269490D2*X-16440D1*X-17240*Y267600*Y265710*X-17450Y265920*X-18030Y266300*X-18770Y266570*X-19810Y266640*X-20790Y266560*X-21550Y266300*X-22140Y265830*X-22610Y265220*X-22990Y264100*X-23120Y262770*X-23010Y261450*X-21230Y261180D2*X-21390Y261700D1*X-21440Y262740*X-21360Y263760*X-21080Y264460*X-20630Y264940*X-19980Y265190*X-19120Y265230*X-18340Y265100*X-17800Y264730*X-17550Y264420*X-17390Y264070*X-17260Y262940*X-17300Y261810*X-17540Y261000*X-24220Y261330D2*Y261580D1*X-25040Y261560*X-25850Y261550*X-25890Y261310*X-25880D2*X-26030Y260860D1*X-25950Y262520D2*X-24980Y262990D1*X-24680Y263270*X-24490Y263610*X-24390Y264470*X-24430Y264940*X-24570Y265310*X-24580D2*X-24840Y265720D1*X-25210Y266050*X-25690Y266320*X-26270Y266520*X-26530Y265170D2*X-26170Y264930D1*X-26030Y264580*X-26050Y264250*X-26230Y264010*X-19230Y258740D2*X-18020Y259000D1*X-17540Y259240*X-17140Y259560*X-16850Y259840*X-16700Y259340*X-16560Y258840*X-16100*X-15640*X-23010Y261450D2*X-22650Y260310D1*X-22110Y259530*X-21360Y259010*X-20410Y258750*X-19230Y258740*X-20320Y260230D2*X-20700Y260450D1*X-21010Y260760*X-21230Y261180*X-17540Y261000D2*X-17990Y260460D1*X-18660Y260150*X-19500Y260100*X-20320Y260230*X-26670Y258810D2*X-25930Y259000D1*X-25320Y259300*X-24850Y259690*X-24510Y260180*X-24310Y260750*X-24220Y261330*X-26030Y260860D2*X-26330Y260490D1*X-17420Y225240D2*X-14280D1*Y231540*X-10800Y227440D2*X-8300D1*X-11510Y225240D2*X-9550Y231540D1*X-7590Y225240*X-2310D2*X-4190D1*X-3250Y231540D2*Y225240D1*X-2310Y231540D2*X-4190D1*X1480Y225240D2*X2660Y228280D1*X4620D2*X2660D1*X2110Y228600*X1640Y229120*X1480Y229960*X1640Y230800*X2030Y231220*X2660Y231540*X4620*Y225240*X9040Y228500D2*X10920D1*X7780Y231540D2*X10920D1*Y225240*X7780*X14320Y230800D2*X14790Y231330D1*X15340Y231540*X15890*X16430Y231220*X16820Y230700*X16980Y229960*X16750Y229230*X16200Y228810*X15260Y228600*X14550Y228180*X14160Y227550*X14000Y226820*X14240Y226080*X14710Y225550*X15340Y225240*X15960*X16670Y225550*X17300Y226080*X-29740Y260990D2*X-29670Y261260D1*X-29470Y261510*X-29110Y261710*X-27530Y262120*X-25950Y262520*X-26270Y266520D2*X-27710Y266630D1*X-29140Y266530*X-29980Y266190*X-30590Y265700*X-30980Y265030*X-31180Y264150*X-31220Y263850*X-30410*X-29600*Y264000*X-29520Y264420*X-29320Y264810*X-28840Y265150*X-28450Y265300*X-27850Y265340*X-27080Y265310*X-26530Y265170*X-26230Y264010D2*X-26830Y263690D1*X-28320Y263330*X-29600Y263040*X-30340Y262760*X-30840Y262420*X-31180Y261980*X-31310Y261660*X-31330Y261080*X-26330Y260490D2*X-26900Y260190D1*X-27650Y260050*X-28450Y260080*X-29170Y260290*X-29490Y260490*X-29680Y260730*X-29740Y260990*X-31330Y261080D2*X-31310Y260520D1*X-31190Y260190*X-30840Y259700*X-30370Y259300*X-29770Y259010*X-29040Y258810*X-27870Y258740*X-26670Y258810*X-31200Y216480D2*X33800D1*Y240480*X-31200*Y216480*X134800Y282370D2*X116870Y300300D1*X98910*X39860Y280610*X-39860*X-98910Y300300*X-116870*X-134800Y282370*Y206110*X-116870Y188180*X-98910*X-39860Y207870*X39860*X98910Y188180*X116870*X134800Y206110*Y282370*X76320Y149720D2*X76160Y150000D1*X75750Y150440*X75500Y150600*X72200Y150610*X76340Y141090D2*X76320Y149720D1*X71100Y148190D2*X73270Y148150D1*X73610Y148060*X73760Y147870*X73820Y147660*X73850Y146840*X73870Y140850*X75680Y131220D2*X76110Y131620D1*X76320Y132180*X76340Y141090*X73870Y140850D2*X73850Y134860D1*X73820Y134050*X73760Y133830*X73610Y133650*X73270Y133550*X71100Y133510*X72150Y131080D2*X75410D1*X75680Y131220*X72200Y150610D2*X68900Y150630D1*X64150Y150620D2*X60900D1*X68900Y150630D2*Y149410D1*Y148190*X71100*X61950D2*X64150D1*Y149410*Y150620*X71100Y133510D2*X68900D1*Y132290*Y131080*X72150*X64150Y132290D2*Y133510D1*X61950*X60900Y131080D2*X64150D1*Y132290*X60900Y150620D2*X57770Y150580D1*X57320Y150470*X57080Y150260*X56880Y150000*X59230Y140850D2*Y147820D1*X59360Y147960*X59620Y148140*X61950Y148190*X56880Y150000D2*X56780Y149080D1*X56750Y140850*X51810Y138960D2*X51790Y139570D1*X51690Y139890*X51410Y140290*X51000Y140620*X50460Y140890*X49790Y141080*X49350Y142990D2*X49760Y142650D1*X49950Y142150*X49990Y141860*X50080Y141720*X50840Y141680*X51650*X51610Y142050*X51430Y142920*X51080Y143570*X50520Y144050*X49760Y144380*X49220Y144480*X49550Y139750D2*X49890Y139560D1*X50070Y139320*X50130Y139010*X61950Y133510D2*X59620Y133560D1*X59360Y133750*X59230Y133890*Y140850*X56750D2*X56780Y132670D1*X56870Y131730*X57070Y131470*X57300Y131240*X57750Y131120*X60900Y131080*X49950Y136710D2*X50520Y136900D1*X50990Y137170*X51370Y137520*X51650Y137950*X51790Y138340*X51810Y138960*X50130Y139010D2*X50060Y138580D1*X49660Y138180*X49790Y141080D2*X47860Y141340D1*X46360Y141500*X46260Y141570*X46270Y141860*X46370Y142310*X46560Y142660*X46830Y142930*X47200Y143100*X47750Y143200*X48330Y143210*X48890Y143140*X49350Y142990*X49220Y144480D2*X48190Y144500D1*X46650Y144400*X46070Y144210*X45580Y143930*X45190Y143560*X44910Y143110*X44740Y142660*X44650Y142050*X44600Y139290*X46510Y138820D2*X46370Y139180D1*X46230Y139860*X46250Y140230*X49050Y139890*X49550Y139750*X43000Y140570D2*Y144420D1*X42540*X42090*X41970Y144050*X41800Y143550*X41750Y143420*X41630Y143590*X41220Y143970*X40690Y144260*X39910Y144470*X38950Y144520*X38390Y142980D2*X39000Y143130D1*X39610Y143150*X40140Y143070*X40590Y142890*X40920Y142630*X41150Y142330*X41270Y141880*X41330Y139290*X44600D2*Y136720D1*X45060*X45520*X45600Y136990*X45750Y137500*X45850Y137750*X45970Y137620*X46260Y137350*X46720Y137080*X47900Y136670*X48930Y136620*X49950Y136710*X47440Y138060D2*X47110Y138220D1*X46790Y138500*X46510Y138820*X49660Y138180D2*X48990Y137940D1*X48220Y137930*X47440Y138060*X41330Y139290D2*X41350Y136720D1*X42170*X43000*Y140570*X34620Y139210D2*Y139460D1*X33810Y139440*X32990Y139430*X32960Y139190*X32820Y138740*X29100Y138870D2*X29180Y139140D1*X29370Y139390*X29740Y139590*X31310Y140000*X32890Y140400*X33870Y140870*X34160Y141150*X34350Y141490*X34460Y142350*X34410Y142820*X34270Y143190*X34000Y143600*X33630Y143930*X33160Y144200*X32580Y144400*X31140Y144510*X29710Y144410*X28860Y144070*X28250Y143580*X27860Y142910*X27660Y142030*X27630Y141730*X28430*X29240*Y141880*X29330Y142300*X29520Y142690*X30000Y143030*X30390Y143180*X31000Y143220*X31760Y143190*X32320Y143050*X32670Y142810*X32810Y142460*X32790Y142130*X32610Y141890*X32010Y141570*X30530Y141210*X30520D2*X29240Y140920D1*X28500Y140640*X28010Y140300*X27660Y139860*X27530Y139540*X27510Y138960*X38950Y144520D2*X38190Y144480D1*X37600Y144360*X37110Y144150*X36710Y143830*X36320Y143310*X36060Y142630*X35960Y141890*X35920Y139470*X37520Y138850D2*X37570Y141520D1*X37700Y142210*X37960Y142680*X38390Y142980*X32170Y136690D2*X32910Y136880D1*X33520Y137180*X33990Y137570*X34330Y138060*X34540Y138630*X34620Y139210*X32820Y138740D2*X32510Y138370D1*X31940Y138070*X31190Y137930*X30390Y137960*X29670Y138170*X29350Y138370*X29160Y138610*X29100Y138870*X27510Y138960D2*X27530Y138400D1*X27660Y138070*X28000Y137580*X28480Y137180*X29080Y136890*X29800Y136690*X30970Y136620*X32170Y136690*X35920Y139470D2*X35910Y136720D1*X36710*X37520*Y138850*X26090Y139400D2*X26130Y141690D1*X26150Y144420*X25350*X24550*X24530Y141870*X24520D2*X24490Y139630D1*X24390Y138970*X20840Y138890D2*X20730Y139270D1*X20650Y139850*X20610Y142310*Y144420*X19810*X19000*Y140210*X17190Y140570D2*Y144420D1*X16740*X24000Y133690D2*X24930Y133960D1*X25610Y134380*X26030Y134970*X26220Y135730*X26260Y136100*X25430*X24600*X24560Y135900*X24420Y135490*X24140Y135200*X23710Y135010*X23090Y134910*X22140*X21400Y135120*X21040Y135350*X20810Y135660*X20680Y136130*X20620Y136810*X20590Y137510*X20800Y137290*X21200Y136990*X21700Y136780*X22310Y136650*X23060Y136610*X24130Y136690*X24820Y136930*X25360Y137330*X25760Y137890*X26020Y138610*X26090Y139400*X24390Y138970D2*X24070Y138420D1*X23530Y138110*X22600Y138030*X21930Y138060*X21560Y138180*X21120Y138470*X20840Y138890*X19000Y140210D2*X19020Y136540D1*X19110Y135600*X19390Y134910*X19850Y134370*X20480Y133970*X21290Y133710*X22640Y133620*X24000Y133690*X17190Y136720D2*Y140570D1*X8620Y139120D2*X8710Y139640D1*X8730Y140570*X8710Y141490*X8620Y142010*X8280Y142880*X7770Y143570*X7110Y144070*X6290Y144390*X5840Y143050D2*X6410Y142690D1*X6710Y142320*X6910Y141850*X7030Y141280*X7070Y140570*X6970Y139530*X6650Y138780*X16740Y144420D2*X16280D1*X16160Y144050*X16000Y143550*X15950Y143420*X15820Y143590*X15410Y143970*X14880Y144260*X14110Y144470*X13140Y144520*X12390Y144480*X11790Y144360*X11310Y144150*X10910Y143830*X10520Y143310*X10250Y142630*X10150Y141890*X10120Y139470*X11710Y138850D2*X11760Y141520D1*X11890Y142210*X12160Y142680*X12580Y142980*X13200Y143130*X13800Y143150*X14340Y143070*X14790Y142890*X15120Y142630*X15350Y142330*X15460Y141880*X15530Y139290*X5970Y136670D2*X6900Y136950D1*X7660Y137460*X8240Y138190*X8620Y139120*X6650Y138780D2*X6110Y138300D1*X10120Y139470D2*X10100Y136720D1*X10910*X11710*Y138850*X15530Y139290D2*X15540Y136720D1*X16370*X17190*X6290Y144390D2*X4950Y144540D1*X3630Y144390*X3060Y144180*X2550Y143870*X2120Y143470*X1820Y143030*X1570Y142350*X1480Y141650*Y141320*X2300*X3130*X3160Y141510*X3330Y142180*X3620Y142650*X3880Y142900*X4170Y143050*X4990Y143150*X5840Y143050*X3320Y138990D2*X3160Y139620D1*X3130Y139770*X2300*X1480*Y139440*X1580Y138720*X-3700Y142070D2*Y147420D1*X-4520*X6110Y138300D2*X5320Y138050D1*X4760Y138030*X4260Y138120*X3830Y138320*X3510Y138610*X3320Y138990*X1580Y138720D2*X1820Y138050D1*X2260Y137480*X2940Y137000*X3810Y136690*X4880Y136620*X5970Y136670*X-4520Y136720D2*X-3700D1*Y142070*X5650Y125220D2*X5340Y125120D1*X5110Y124860*X4960Y124550*X4840Y124130*X4810Y123670*X4840Y123200*X4960Y122790*X5110Y122480*X5340Y122220*X5650Y122120*X5960Y122220*X6190Y122480*X6340Y122790*X6460Y123200*X6490Y123670*X6460Y124130*X6340Y124550*X6190Y124860*X5960Y125120*X5650Y125220*X8750Y122020D2*X8670Y122070D1*Y122170*X8750Y122220*X8830Y122170*Y122070*X8750Y122020*X12310Y122120D2*X11390D1*X12310Y124600D2*X11850Y125220D1*Y122120*X14260Y124190D2*X14950Y122120D1*X15640Y124190*X17400Y122530D2*X17670Y122220D1*X17930Y122120*X18200Y122170*X18430Y122380*X18620Y122690*X18700Y123000*Y123310*X18620Y123620*X18470Y123980*X18240Y124130*X17970Y124190*X17700Y124080*X17510Y123880*X17400Y123510*X18620*X20380Y122120D2*X20960Y123620D1*X21920D2*X20960D1*X20690Y123770*X20460Y124030*X20380Y124440*X20460Y124860*X20650Y125060*X20960Y125220*X21920*Y122120*X26700Y122530D2*X26970Y122220D1*X27230Y122120*X27500Y122170*X27730Y122380*X27920Y122690*X28000Y123000*Y123310*X27920Y123620*X27770Y123980*X27540Y124130*X27270Y124190*X27000Y124080*X26810Y123880*X26700Y123510*X27920*X29760Y122580D2*X29910Y122380D1*X30180Y122170*X30410Y122120*X30720Y122220*X30950Y122480*X31100Y122840*X31140Y123150*X31060Y123510*X30910Y123880*X30720Y124080*X30410Y124190*X30140Y124130*X29910Y123980*X29760Y123770*Y124190D2*Y121760D1*X29910Y121400*X30140Y121140*X30410Y121090*X30720Y121140*X30990Y121340*X32860Y123830D2*X33050Y124030D1*X33240Y124130*X33510Y124190*X33820Y124080*X34050Y123830*X34200Y123510*X34240Y123150*X34200Y122790*X34050Y122480*X33820Y122220*X33510Y122120*X33240Y122170*X33010Y122330*X32860Y122580*Y125220D2*Y122120D1*X36650Y125010D2*X36570Y125060D1*Y125170*X36650Y125220*X36730Y125170*Y125060*X36650Y125010*Y124190D2*Y122120D1*X39210Y123980D2*X39440Y124130D1*X39630Y124190*X39900Y124130*X40100Y123980*X40290Y123770*Y122120D2*Y124190D1*X43540Y122580D2*X43350Y122330D1*X43120Y122170*X42890Y122120*X42660Y122170*X42390Y122380*X42240Y122690*X42160Y123100*Y123510*X42310Y123880*X42540Y124080*X42890Y124190*X43120Y124130*X43350Y123980*X43540Y123670*Y122120D2*Y125220D1*X45300Y122530D2*X45570Y122220D1*X45830Y122120*X46100Y122170*X46330Y122380*X46520Y122690*X46600Y123000*Y123310*X46520Y123620*X46370Y123980*X46140Y124130*X45870Y124190*X45600Y124080*X45410Y123880*X45300Y123510*X46520*X49050Y122120D2*Y125220D1*X52150Y125010D2*X52070Y125060D1*Y125170*X52150Y125220*X52230Y125170*Y125060*X52150Y125010*Y124190D2*Y122120D1*X55790Y124190D2*X54710D1*X55250Y125220D2*Y122120D1*X59500Y121090D2*X57200D1*X60840Y122430D2*X61070Y122220D1*X61330Y122120*X61640Y122220*X61870Y122480*X62020Y122790*X62060Y123150*X62020Y123510*X61870Y123880*X61640Y124080*X61330Y124190*X61100Y124130*X60840Y123930*X63860Y122530D2*X64010Y122330D1*X64240Y122170*X64510Y122120*X64780Y122220*X65010Y122430*X65160Y122740*X65240Y123150*X65160Y123570*X65010Y123880*X64780Y124080*X64510Y124190*X64240Y124130*X64010Y124030*X63860Y123830*Y122120D2*Y124190D1*X67190Y123980D2*X67420Y124130D1*X67650Y124190*X67880Y124130*X68030Y123980*X68110Y123720*X67960Y123360*X67270Y123050*X67110Y122900*X67080Y122580*X67150Y122380*X67300Y122220*X67530Y122120*X67770*X68030Y122270*X68220Y122480*X70750Y122120D2*X70520Y122170D1*X70290Y122380*X70140Y122740*X70100Y123150*X70140Y123570*X70290Y123930*X70520Y124130*X70750Y124190*X70980Y124130*X71210Y123930*X71360Y123570*X71440Y123150*X71360Y122740*X71210Y122380*X70980Y122170*X70750Y122120*X72700D2*Y123570D1*X72810Y123880*X73010Y124080*X73280Y124190*X73540Y124080*X73730Y123880*X73850Y123620*Y122120D2*Y123620D1*X73970Y123880*X74160Y124080*X74420Y124190*X74690Y124080*X74890Y123880*X75000Y123620*Y122120D2*Y124190D1*X-15640Y142040D2*Y147370D1*X-6820Y138960D2*X-6840Y139570D1*X-6950Y139890*X-7230Y140290*X-7640Y140620*X-8180Y140890*X-8850Y141080*X-10780Y141340*X-12270Y141500*X-12370Y141570*X-12380D2*X-12370Y141860D1*X-12270Y142310*X-12080Y142660*X-11800Y142930*X-11440Y143100*X-10890Y143200*X-10300Y143210*X-9750Y143140*X-9290Y142990*X-8880Y142650*X-8680Y142150*X-8650Y141860*X-8560Y141720*X-7800Y141680*X-6990*X-7030Y142050*X-7200Y142920*X-7560Y143570*X-8110Y144050*X-8880Y144380*X-9420Y144480*X-10440Y144500*X-11980Y144400*X-12570Y144210*X-13060Y143930*X-13450Y143560*X-13730Y143110*X-13890Y142660*X-13990Y142050*X-14040Y139290*X-12130Y138820D2*X-12270Y139180D1*X-12410Y139860*X-12390Y140230*X-9590Y139890*X-9090Y139750*X-8750Y139560*X-8560Y139320*X-8500Y139010*X-4520Y147420D2*X-5350D1*Y142070*X-15640Y136720D2*Y142040D1*X-8690Y136710D2*X-8120Y136900D1*X-7640Y137170*X-7270Y137520*X-6990Y137950*X-6850Y138340*X-6820Y138960*X-14040Y139290D2*Y136720D1*X-13580*X-13110*X-13040Y136990*X-12890Y137500*X-12790Y137750*X-12660Y137620*X-12380Y137350*X-11910Y137080*X-10740Y136670*X-9710Y136620*X-8690Y136710*X-11190Y138060D2*X-11530Y138220D1*X-11850Y138500*X-12130Y138820*X-8500Y139010D2*X-8580Y138580D1*X-8980Y138180*X-9640Y137940*X-10410Y137930*X-11190Y138060*X-5350Y142070D2*Y136720D1*X-4520*X-15640Y147370D2*X-16440D1*X-17240*Y145480*Y143590*X-17450Y143800*X-18030Y144180*X-18770Y144450*X-19810Y144520*X-20790Y144440*X-21550Y144180*X-22140Y143710*X-22610Y143100*X-22990Y141980*X-23120Y140650*X-23010Y139330*X-21230Y139060D2*X-21390Y139580D1*X-21440Y140620*X-21360Y141640*X-21080Y142340*X-20630Y142820*X-19980Y143070*X-19120Y143110*X-18340Y142980*X-17800Y142610*X-17550Y142300*X-17390Y141950*X-17260Y140820*X-17300Y139690*X-17540Y138880*X-24220Y139210D2*Y139460D1*X-25040Y139440*X-25850Y139430*X-25890Y139190*X-25880D2*X-26030Y138740D1*X-25950Y140400D2*X-24980Y140870D1*X-24680Y141150*X-24490Y141490*X-24390Y142350*X-24430Y142820*X-24570Y143190*X-24580D2*X-24840Y143600D1*X-25210Y143930*X-25690Y144200*X-26270Y144400*X-26530Y143050D2*X-26170Y142810D1*X-26030Y142460*X-26050Y142130*X-26230Y141890*X-19230Y136620D2*X-18020Y136880D1*X-17540Y137120*X-17140Y137440*X-16850Y137720*X-16700Y137220*X-16560Y136720*X-16100*X-15640*X-23010Y139330D2*X-22650Y138190D1*X-22110Y137410*X-21360Y136890*X-20410Y136630*X-19230Y136620*X-20320Y138110D2*X-20700Y138330D1*X-21010Y138640*X-21230Y139060*X-17540Y138880D2*X-17990Y138340D1*X-18660Y138030*X-19500Y137980*X-20320Y138110*X-26670Y136690D2*X-25930Y136880D1*X-25320Y137180*X-24850Y137570*X-24510Y138060*X-24310Y138630*X-24220Y139210*X-26030Y138740D2*X-26330Y138370D1*X-17420Y103120D2*X-14280D1*Y109420*X-10800Y105320D2*X-8300D1*X-11510Y103120D2*X-9550Y109420D1*X-7590Y103120*X-2310D2*X-4190D1*X-3250Y109420D2*Y103120D1*X-2310Y109420D2*X-4190D1*X1480Y103120D2*X2660Y106160D1*X4620D2*X2660D1*X2110Y106480*X1640Y107000*X1480Y107840*X1640Y108680*X2030Y109100*X2660Y109420*X4620*Y103120*X9040Y106380D2*X10920D1*X7780Y109420D2*X10920D1*Y103120*X7780*X14320Y108680D2*X14790Y109210D1*X15340Y109420*X15890*X16430Y109100*X16820Y108580*X16980Y107840*X16750Y107110*X16200Y106690*X15260Y106480*X14550Y106060*X14160Y105430*X14000Y104700*X14240Y103960*X14710Y103430*X15340Y103120*X15960*X16670Y103430*X17300Y103960*X-29740Y138870D2*X-29670Y139140D1*X-29470Y139390*X-29110Y139590*X-27530Y140000*X-25950Y140400*X-26270Y144400D2*X-27710Y144510D1*X-29140Y144410*X-29980Y144070*X-30590Y143580*X-30980Y142910*X-31180Y142030*X-31220Y141730*X-30410*X-29600*Y141880*X-29520Y142300*X-29320Y142690*X-28840Y143030*X-28450Y143180*X-27850Y143220*X-27080Y143190*X-26530Y143050*X-26230Y141890D2*X-26830Y141570D1*X-28320Y141210*X-29600Y140920*X-30340Y140640*X-30840Y140300*X-31180Y139860*X-31310Y139540*X-31330Y138960*X-26330Y138370D2*X-26900Y138070D1*X-27650Y137930*X-28450Y137960*X-29170Y138170*X-29490Y138370*X-29680Y138610*X-29740Y138870*X-31330Y138960D2*X-31310Y138400D1*X-31190Y138070*X-30840Y137580*X-30370Y137180*X-29770Y136890*X-29040Y136690*X-27870Y136620*X-26670Y136690*X-31200Y94360D2*X33800D1*Y118360*X-31200*Y94360*X134800Y160250D2*X116870Y178180D1*X98910*X39860Y158490*X-39860*X-98910Y178180*X-116870*X-134800Y160250*Y83990*X-116870Y66060*X-98910*X-39860Y85750*X39860*X98910Y66060*X116870*X134800Y83990*Y160250*Y38130D2*Y-38130D1*X116870Y-56060*X98910*X39860Y-36370*X-39860*X-98910Y-56060*X-116870*X-134800Y-38130*Y38130*X-116870Y56060*X-98910*X-39860Y36370*X39860*X98910Y56060*X116870*X134800Y38130*X-31200Y-27760D2*Y-3760D1*X33800*Y-27760*X-31200*X-26670Y14570D2*X-27870Y14500D1*X-29040Y14570*X-29770Y14770*X-30370Y15060*X-30840Y15460*X-31190Y15950*X-31310Y16280*X-31330Y16840*X-29740Y16750D2*X-29680Y16490D1*X-29490Y16250*X-29170Y16050*X-28450Y15840*X-27650Y15810*X-26900Y15950*X-26330Y16250*X-31330Y16840D2*X-31310Y17420D1*X-31180Y17740*X-30840Y18180*X-30340Y18520*X-29600Y18800*X-28320Y19090*X-26830Y19450*X-26230Y19770*X-26530Y20930D2*X-27080Y21070D1*X-27850Y21100*X-28450Y21060*X-28840Y20910*X-29320Y20570*X-29520Y20180*X-29600Y19760*Y19610*X-30410*X-31220*X-31180Y19910*X-30980Y20790*X-30590Y21460*X-29980Y21950*X-29140Y22290*X-27710Y22390*X-26270Y22280*X-25950Y18280D2*X-27530Y17880D1*X-29110Y17470*X-29470Y17270*X-29670Y17020*X-29740Y16750*X17300Y-18160D2*X16670Y-18690D1*X15960Y-19000*X15340*X14710Y-18690*X14240Y-18160*X14000Y-17420*X14160Y-16690*X14550Y-16060*X15260Y-15640*X16200Y-15430*X16750Y-15010*X16980Y-14280*X16820Y-13540*X16430Y-13020*X15890Y-12700*X15340*X14790Y-12910*X14320Y-13440*X7780Y-19000D2*X10920D1*Y-12700*X7780*X9040Y-15740D2*X10920D1*X4620Y-19000D2*Y-12700D1*X2660*X2030Y-13020*X1640Y-13440*X1480Y-14280*X1640Y-15120*X2110Y-15640*X2660Y-15960*X4620D2*X2660D1*X1480Y-19000*X-2310Y-12700D2*X-4190D1*X-3250D2*Y-19000D1*X-2310D2*X-4190D1*X-7590D2*X-9550Y-12700D1*X-11510Y-19000*X-10800Y-16800D2*X-8300D1*X-14280Y-12700D2*Y-19000D1*X-17420*X-26030Y16620D2*X-26330Y16250D1*X-24220Y17090D2*X-24310Y16510D1*X-24510Y15940*X-24850Y15450*X-25320Y15060*X-25930Y14760*X-26670Y14570*X-20320Y15990D2*X-19500Y15860D1*X-18660Y15910*X-17990Y16220*X-17540Y16760*X-21230Y16940D2*X-21010Y16520D1*X-20700Y16210*X-20320Y15990*X-19230Y14500D2*X-20410Y14510D1*X-21360Y14770*X-22110Y15290*X-22650Y16070*X-23010Y17210*X-15640Y14600D2*X-16100D1*X-16560*X-16700Y15100*X-16850Y15600*X-17140Y15320*X-17540Y15000*X-18020Y14760*X-19230Y14500*X-26230Y19770D2*X-26050Y20010D1*X-26030Y20340*X-26170Y20690*X-26530Y20930*X-26270Y22280D2*X-25690Y22080D1*X-25210Y21810*X-24840Y21480*X-24580Y21070*X-24570D2*X-24430Y20700D1*X-24390Y20230*X-24490Y19370*X-24680Y19030*X-24980Y18750*X-25950Y18280*X-25880Y17070D2*X-26030Y16620D1*X-25890Y17070D2*X-25850Y17310D1*X-25040Y17320*X-24220Y17340*Y17090*X-17540Y16760D2*X-17300Y17570D1*X-17260Y18700*X-17390Y19830*X-17550Y20180*X-17800Y20490*X-18340Y20860*X-19120Y20990*X-19980Y20950*X-20630Y20700*X-21080Y20220*X-21360Y19520*X-21440Y18500*X-21390Y17460*X-21230Y16940*X-23010Y17210D2*X-23120Y18530D1*X-22990Y19860*X-22610Y20980*X-22140Y21590*X-21550Y22060*X-20790Y22320*X-19810Y22400*X-18770Y22330*X-18030Y22060*X-17450Y21680*X-17240Y21470*Y23360*Y25250*X-16440*X-15640*X-4520Y14600D2*X-5350D1*Y19950*X-11190Y15940D2*X-10410Y15810D1*X-9640Y15820*X-8980Y16060*X-8580Y16460*X-8500Y16890*X-12130Y16700D2*X-11850Y16380D1*X-11530Y16100*X-11190Y15940*X-8690Y14590D2*X-9710Y14500D1*X-10740Y14550*X-11910Y14960*X-12380Y15230*X-12660Y15500*X-12790Y15630*X-12890Y15380*X-13040Y14870*X-13110Y14600*X-13580*X-14040*Y17170*X-6820Y16840D2*X-6850Y16220D1*X-6990Y15830*X-7270Y15400*X-7640Y15050*X-8120Y14780*X-8690Y14590*X-15640Y14600D2*Y19920D1*X-5350Y19950D2*Y25300D1*X-4520*X-8500Y16890D2*X-8560Y17200D1*X-8750Y17440*X-9090Y17630*X-9590Y17770*X-12390Y18110*X-12410Y17740*X-12270Y17060*X-12130Y16700*X-14040Y17170D2*X-13990Y19930D1*X-13890Y20540*X-13730Y20990*X-13450Y21440*X-13060Y21810*X-12570Y22090*X-11980Y22280*X-10440Y22380*X-9420Y22360*X-8880Y22260*X-8110Y21930*X-7560Y21450*X-7200Y20800*X-7030Y19930*X-6990Y19560*X-7800*X-8560Y19600*X-8650Y19740*X-8680Y20030*X-8880Y20530*X-9290Y20870*X-9750Y21020*X-10300Y21090*X-10890Y21080*X-11440Y20980*X-11800Y20810*X-12080Y20540*X-12270Y20190*X-12370Y19740*X-12380Y19450*X-12370D2*X-12270Y19380D1*X-10780Y19220*X-8850Y18960*X-8180Y18770*X-7640Y18500*X-7230Y18170*X-6950Y17770*X-6840Y17450*X-6820Y16840*X-15640Y19920D2*Y25250D1*X75000Y0D2*Y2070D1*Y1500D2*X74890Y1760D1*X74690Y1960*X74420Y2070*X74160Y1960*X73970Y1760*X73850Y1500*Y0D2*Y1500D1*X73730Y1760*X73540Y1960*X73280Y2070*X73010Y1960*X72810Y1760*X72700Y1450*Y0*X70750D2*X70980Y50D1*X71210Y260*X71360Y620*X71440Y1030*X71360Y1450*X71210Y1810*X70980Y2010*X70750Y2070*X70520Y2010*X70290Y1810*X70140Y1450*X70100Y1030*X70140Y620*X70290Y260*X70520Y50*X70750Y0*X68220Y360D2*X68030Y150D1*X67770Y0*X67530*X67300Y100*X67150Y260*X67080Y460*X67110Y780*X67270Y930*X67960Y1240*X68110Y1600*X68030Y1860*X67880Y2010*X67650Y2070*X67420Y2010*X67190Y1860*X63860Y0D2*Y2070D1*Y1710D2*X64010Y1910D1*X64240Y2010*X64510Y2070*X64780Y1960*X65010Y1760*X65160Y1450*X65240Y1030*X65160Y620*X65010Y310*X64780Y100*X64510Y0*X64240Y50*X64010Y210*X63860Y410*X60840Y1810D2*X61100Y2010D1*X61330Y2070*X61640Y1960*X61870Y1760*X62020Y1390*X62060Y1030*X62020Y670*X61870Y360*X61640Y100*X61330Y0*X61070Y100*X60840Y310*X59500Y-1030D2*X57200D1*X55250Y3100D2*Y0D1*X55790Y2070D2*X54710D1*X52150D2*Y0D1*Y2890D2*X52230Y2940D1*Y3050*X52150Y3100*X52070Y3050*Y2940*X52150Y2890*X49050Y0D2*Y3100D1*X46520Y1390D2*X45300D1*X45410Y1760*X45600Y1960*X45870Y2070*X46140Y2010*X46370Y1860*X46520Y1500*X46600Y1190*Y880*X46520Y570*X46330Y260*X46100Y50*X45830Y0*X45570Y100*X45300Y410*X43540Y0D2*Y3100D1*Y1550D2*X43350Y1860D1*X43120Y2010*X42890Y2070*X42540Y1960*X42310Y1760*X42160Y1390*Y980*X42240Y570*X42390Y260*X42660Y50*X42890Y0*X43120Y50*X43350Y210*X43540Y460*X40290Y0D2*Y2070D1*Y1650D2*X40100Y1860D1*X39900Y2010*X39630Y2070*X39440Y2010*X39210Y1860*X36650Y2070D2*Y0D1*Y2890D2*X36730Y2940D1*Y3050*X36650Y3100*X36570Y3050*Y2940*X36650Y2890*X32860Y3100D2*Y0D1*Y460D2*X33010Y210D1*X33240Y50*X33510Y0*X33820Y100*X34050Y360*X34200Y670*X34240Y1030*X34200Y1390*X34050Y1710*X33820Y1960*X33510Y2070*X33240Y2010*X33050Y1910*X32860Y1710*X30990Y-780D2*X30720Y-980D1*X30410Y-1030*X30140Y-980*X29910Y-720*X29760Y-360*Y2070*Y1650D2*X29910Y1860D1*X30140Y2010*X30410Y2070*X30720Y1960*X30910Y1760*X31060Y1390*X31140Y1030*X31100Y720*X30950Y360*X30720Y100*X30410Y0*X30180Y50*X29910Y260*X29760Y460*X27920Y1390D2*X26700D1*X26810Y1760*X27000Y1960*X27270Y2070*X27540Y2010*X27770Y1860*X27920Y1500*X28000Y1190*Y880*X27920Y570*X27730Y260*X27500Y50*X27230Y0*X26970Y100*X26700Y410*X21920Y0D2*Y3100D1*X20960*X20650Y2940*X20460Y2740*X20380Y2320*X20460Y1910*X20690Y1650*X20960Y1500*X21920D2*X20960D1*X20380Y0*X18620Y1390D2*X17400D1*X17510Y1760*X17700Y1960*X17970Y2070*X18240Y2010*X18470Y1860*X18620Y1500*X18700Y1190*Y880*X18620Y570*X18430Y260*X18200Y50*X17930Y0*X17670Y100*X17400Y410*X15640Y2070D2*X14950Y0D1*X14260Y2070*X11850Y0D2*Y3100D1*X12310Y2480*Y0D2*X11390D1*X8750Y-100D2*X8830Y-50D1*Y50*X8750Y100*X8670Y50*Y-50*X8750Y-100*X5650Y3100D2*X5960Y3000D1*X6190Y2740*X6340Y2430*X6460Y2010*X6490Y1550*X6460Y1080*X6340Y670*X6190Y360*X5960Y100*X5650Y0*X5340Y100*X5110Y360*X4960Y670*X4840Y1080*X4810Y1550*X4840Y2010*X4960Y2430*X5110Y2740*X5340Y3000*X5650Y3100*X-3700Y19950D2*Y14600D1*X-4520*X5970Y14550D2*X4880Y14500D1*X3810Y14570*X2940Y14880*X2260Y15360*X1820Y15930*X1580Y16600*X3320Y16870D2*X3510Y16490D1*X3830Y16200*X4260Y16000*X4760Y15910*X5320Y15930*X6110Y16180*X-4520Y25300D2*X-3700D1*Y19950*X1580Y16600D2*X1480Y17320D1*Y17650*X2300*X3130*X3160Y17500*X3320Y16870*X5840Y20930D2*X4990Y21030D1*X4170Y20930*X3880Y20780*X3620Y20530*X3330Y20060*X3160Y19390*X3130Y19200*X2300*X1480*Y19530*X1570Y20230*X1820Y20910*X2120Y21350*X2550Y21750*X3060Y22060*X3630Y22270*X4950Y22420*X6290Y22270*X17190Y14600D2*X16370D1*X15540*X15530Y17170*X11710Y16730D2*Y14600D1*X10910*X10100*X10120Y17350*X6650Y16660D2*X6110Y16180D1*X8620Y17000D2*X8240Y16070D1*X7660Y15340*X6900Y14830*X5970Y14550*X15530Y17170D2*X15460Y19760D1*X15350Y20210*X15120Y20510*X14790Y20770*X14340Y20950*X13800Y21030*X13200Y21010*X12580Y20860*X12160Y20560*X11890Y20090*X11760Y19400*X11710Y16730*X10120Y17350D2*X10150Y19770D1*X10250Y20510*X10520Y21190*X10910Y21710*X11310Y22030*X11790Y22240*X12390Y22360*X13140Y22400*X14110Y22350*X14880Y22140*X15410Y21850*X15820Y21470*X15950Y21300*X16000Y21430*X16160Y21930*X16280Y22300*X16740*X6650Y16660D2*X6970Y17410D1*X7070Y18450*X7030Y19160*X6910Y19730*X6710Y20200*X6410Y20570*X5840Y20930*X6290Y22270D2*X7110Y21950D1*X7770Y21450*X8280Y20760*X8620Y19890*X8710Y19370*X8730Y18450*X8710Y17520*X8620Y17000*X17190Y14600D2*Y18450D1*X24000Y11570D2*X22640Y11500D1*X21290Y11590*X20480Y11850*X19850Y12250*X19390Y12790*X19110Y13480*X19020Y14420*X19000Y18090*X20840Y16770D2*X21120Y16350D1*X21560Y16060*X21930Y15940*X22600Y15910*X23530Y15990*X24070Y16300*X24390Y16850*X26090Y17280D2*X26020Y16490D1*X25760Y15770*X25360Y15210*X24820Y14810*X24130Y14570*X23060Y14490*X22310Y14530*X21700Y14660*X21200Y14870*X20800Y15170*X20590Y15390*X20620Y14690*X20680Y14010*X20810Y13540*X21040Y13230*X21400Y13000*X22140Y12790*X23090*X23710Y12890*X24140Y13080*X24420Y13370*X24560Y13780*X24600Y13980*X25430*X26260*X26220Y13610*X26030Y12850*X25610Y12260*X24930Y11840*X24000Y11570*X16740Y22300D2*X17190D1*Y18450*X19000Y18090D2*Y22300D1*X19810*X20610*Y20190*X20650Y17730*X20730Y17150*X20840Y16770*X24390Y16850D2*X24490Y17510D1*X24520Y19750*X24530D2*X24550Y22300D1*X25350*X26150*X26130Y19570*X26090Y17280*X37520Y16730D2*Y14600D1*X36710*X35910*X35920Y17350*X32170Y14570D2*X30970Y14500D1*X29800Y14570*X29080Y14770*X28480Y15060*X28000Y15460*X27660Y15950*X27530Y16280*X27510Y16840*X29100Y16750D2*X29160Y16490D1*X29350Y16250*X29670Y16050*X30390Y15840*X31190Y15810*X31940Y15950*X32510Y16250*X32820Y16620*X34620Y17090D2*X34540Y16510D1*X34330Y15940*X33990Y15450*X33520Y15060*X32910Y14760*X32170Y14570*X38390Y20860D2*X37960Y20560D1*X37700Y20090*X37570Y19400*X37520Y16730*X35920Y17350D2*X35960Y19770D1*X36060Y20510*X36320Y21190*X36710Y21710*X37110Y22030*X37600Y22240*X38190Y22360*X38950Y22400*X27510Y16840D2*X27530Y17420D1*X27660Y17740*X28010Y18180*X28500Y18520*X29240Y18800*X30520Y19090*X30530D2*X32010Y19450D1*X32610Y19770*X32790Y20010*X32810Y20340*X32670Y20690*X32320Y20930*X31760Y21070*X31000Y21100*X30390Y21060*X30000Y20910*X29520Y20570*X29330Y20180*X29240Y19760*Y19610*X28430*X27630*X27660Y19910*X27860Y20790*X28250Y21460*X28860Y21950*X29710Y22290*X31140Y22390*X32580Y22280*X33160Y22080*X33630Y21810*X34000Y21480*X34270Y21070*X34410Y20700*X34460Y20230*X34350Y19370*X34160Y19030*X33870Y18750*X32890Y18280*X31310Y17880*X29740Y17470*X29370Y17270*X29180Y17020*X29100Y16750*X32820Y16620D2*X32960Y17070D1*X32990Y17310*X33810Y17320*X34620Y17340*Y17090*X43000Y18450D2*Y14600D1*X42170*X41350*X41330Y17170*X47440Y15940D2*X48220Y15810D1*X48990Y15820*X49660Y16060*X46510Y16700D2*X46790Y16380D1*X47110Y16100*X47440Y15940*X49950Y14590D2*X48930Y14500D1*X47900Y14550*X46720Y14960*X46260Y15230*X45970Y15500*X45850Y15630*X45750Y15380*X45600Y14870*X45520Y14600*X45060*X44600*Y17170*X41330D2*X41270Y19760D1*X41150Y20210*X40920Y20510*X40590Y20770*X40140Y20950*X39610Y21030*X39000Y21010*X38390Y20860*X38950Y22400D2*X39910Y22350D1*X40690Y22140*X41220Y21850*X41630Y21470*X41750Y21300*X41800Y21430*X41970Y21930*X42090Y22300*X42540*X43000*Y18450*X49550Y17630D2*X49050Y17770D1*X46250Y18110*X46230Y17740*X46370Y17060*X46510Y16700*X44600Y17170D2*X44650Y19930D1*X44740Y20540*X44910Y20990*X45190Y21440*X45580Y21810*X46070Y22090*X46650Y22280*X48190Y22380*X49220Y22360*X49350Y20870D2*X48890Y21020D1*X48330Y21090*X47750Y21080*X47200Y20980*X46830Y20810*X46560Y20540*X46370Y20190*X46270Y19740*X46260Y19450*X46360Y19380*X47860Y19220*X49790Y18960*X49660Y16060D2*X50060Y16460D1*X50130Y16890*X51810Y16840D2*X51790Y16220D1*X51650Y15830*X51370Y15400*X50990Y15050*X50520Y14780*X49950Y14590*X60900Y8960D2*X57750Y9000D1*X57300Y9120*X57070Y9350*X56870Y9610*X56780Y10550*X56750Y18730*X59230D2*Y11770D1*X59360Y11630*X59620Y11440*X61950Y11390*X50130Y16890D2*X50070Y17200D1*X49890Y17440*X49550Y17630*X49220Y22360D2*X49760Y22260D1*X50520Y21930*X51080Y21450*X51430Y20800*X51610Y19930*X51650Y19560*X50840*X50080Y19600*X49990Y19740*X49950Y20030*X49760Y20530*X49350Y20870*X49790Y18960D2*X50460Y18770D1*X51000Y18500*X51410Y18170*X51690Y17770*X51790Y17450*X51810Y16840*X56750Y18730D2*X56780Y26960D1*X56880Y27880*X61950Y26070D2*X59620Y26020D1*X59360Y25840*X59230Y25700*Y18730*X56880Y27880D2*X57080Y28140D1*X57320Y28350*X57770Y28460*X60900Y28500*X64150Y10170D2*Y8960D1*X60900*X61950Y11390D2*X64150D1*Y10170*X72150Y8960D2*X68900D1*Y10170*Y11390*X71100*X64150Y28500D2*Y27290D1*Y26070*X61950*X71100D2*X68900D1*Y27290*Y28510*X64150Y28500D2*X60900D1*X72200Y28490D2*X68900Y28510D1*X75680Y9100D2*X75410Y8960D1*X72150*X71100Y11390D2*X73270Y11430D1*X73610Y11530*X73760Y11710*X73820Y11930*X73850Y12740*X73870Y18730*X76340Y18970D2*X76320Y10060D1*X76110Y9500*X75680Y9100*X73870Y18730D2*X73850Y24720D1*X73820Y25540*X73760Y25750*X73610Y25940*X73270Y26030*X71100Y26070*X76340Y18970D2*X76320Y27600D1*X72200Y28490D2*X75500Y28480D1*X75750Y28320*X76160Y27880*X76320Y27600*X0Y0D2*M02*