G04 Output by ViewMate Deluxe V11.16.76  PentaLogix*
G04 Wed Nov 29 11:23:47 2023*
%IPPOS*%
%FSLAX25Y25*%
%MOIN*%
%ADD106C,0.066*%
%ADD107R,0.056X0.056*%

%LPD*%
X0Y0D2*D106*G1X113270Y274240D3*Y254240D3*Y264240D3*Y244240D3*Y234240D3*Y224240D3*X103270Y274240D3*Y254240D3*Y264240D3*Y244240D3*Y234240D3*Y224240D3*Y214240D3*X-103270Y274240D3*Y264240D3*Y254240D3*Y244240D3*Y234240D3*Y224240D3*Y214240D3*X-113270Y264240D3*Y254240D3*Y244240D3*Y234240D3*Y224240D3*Y214240D3*X113270Y152120D3*Y132120D3*Y142120D3*Y122120D3*Y112120D3*Y102120D3*X103270Y152120D3*Y132120D3*Y142120D3*Y122120D3*Y112120D3*Y102120D3*Y92120D3*X-103270Y152120D3*Y142120D3*Y132120D3*Y122120D3*Y112120D3*Y102120D3*Y92120D3*X-113270Y142120D3*Y132120D3*Y122120D3*Y112120D3*Y102120D3*Y92120D3*Y-30000D3*Y-20000D3*Y-10000D3*Y0D3*Y10000D3*Y20000D3*X-103270Y-30000D3*Y-20000D3*Y-10000D3*Y0D3*Y10000D3*Y20000D3*Y30000D3*X103270Y-30000D3*Y-20000D3*Y-10000D3*Y0D3*Y20000D3*Y10000D3*Y30000D3*X113270Y-20000D3*Y-10000D3*Y0D3*Y20000D3*Y10000D3*Y30000D3*D107*X113270Y214240D3*X-113270Y274240D3*X113270Y92120D3*X-113270Y152120D3*Y30000D3*X113270Y-30000D3*X0Y0D2*M02*