
M48
INCH,LZ,00.0000
T03C0.04
%
M72
G90
T03
G00X01378Y-003937
G41
M15
G01X011811Y-005906
X009843
X003937Y-003937
X-003937
X-009843Y-005906
X-011811
X-01378Y-003937
M17
G00X01378Y003937
G42
M15
G01X011811Y005906
X009843
X003937Y003937
X-003937
X-009843Y005906
X-011811
X-01378Y003937
M17
G00X01378Y008275
G41
M15
G01X011811Y006306
X009843
X003937Y008275
X-003937
X-009843Y006306
X-011811
X-01378Y008275
M17
G00X01378Y016149
G42
M15
G01X011811Y018118
X009843
X003937Y016149
X-003937
X-009843Y018118
X-011811
X-01378Y016149
M17
G00X01378Y020487
G41
M15
G01X011811Y018518
X009843
X003937Y020487
X-003937
X-009843Y018518
X-011811
X-01378Y020487
M17
G00X01378Y028361
G42
M15
G01X011811Y03033
X009843
X003937Y028361
X-003937
X-009843Y03033
X-011811
X-01378Y028361
M17
M30
