G04 Output by ViewMate Deluxe V11.16.76  PentaLogix*
G04 Wed Nov 29 11:25:29 2023*
%IPPOS*%
%FSLAX25Y25*%
%MOIN*%
%ADD10C,0.007*%
%ADD11C,0.003*%

%LPD*%
X0Y0D2*D10*G1X119820Y238990D2*Y207990D1*X97820*Y279990*X119820*Y248990*X-119000Y249240D2*Y280240D1*X-97000*Y208240*X-119000*Y239240*X119820Y116870D2*Y85870D1*X97820*Y157870*X119820*Y126870*X-119000Y127120D2*Y158120D1*X-97000*Y86120*X-119000*Y117120*Y-5000D2*Y-36000D1*X-97000*Y36000*X-119000*Y5000*X119820Y4750D2*Y35750D1*X97820*Y-36250*X119820*Y-5250*D11*X110300Y284240D2*X107000D1*X107160Y285180*X107630Y286230*X108340Y286970*X109900Y288020*X110220Y288540*X110300Y289180*X110140Y289800*X109590Y290330*X108810Y290540*X108180Y290440*X107630Y290120*X107160Y289490*X103920Y290540D2*Y286340D1*X103760Y285500*X103290Y284870*X102820Y284450*X102190Y284240*X101640Y284450*X101180Y284870*X100780Y285500*X-102290Y284240D2*X-100410D1*X-102290Y289280D2*X-101350Y290540D1*Y284240*X-106080Y290540D2*Y286340D1*X-106240Y285500*X-106710Y284870*X-107180Y284450*X-107810Y284240*X-108360Y284450*X-108820Y284870*X-109220Y285500*X110300Y162120D2*X107000D1*X107160Y163060*X107630Y164110*X108340Y164850*X109900Y165900*X110220Y166420*X110300Y167060*X110140Y167680*X109590Y168210*X108810Y168420*X108180Y168320*X107630Y168000*X107160Y167370*X103920Y168420D2*Y164220D1*X103760Y163380*X103290Y162750*X102820Y162330*X102190Y162120*X101640Y162330*X101180Y162750*X100780Y163380*X-102290Y162120D2*X-100410D1*X-102290Y167160D2*X-101350Y168420D1*Y162120*X-106080Y168420D2*Y164220D1*X-106240Y163380*X-106710Y162750*X-107180Y162330*X-107810Y162120*X-108360Y162330*X-108820Y162750*X-109220Y163380*Y41260D2*X-108820Y40630D1*X-108360Y40210*X-107810Y40000*X-107180Y40210*X-106710Y40630*X-106240Y41260*X-106080Y42100*Y46300*X-101350Y40000D2*Y46300D1*X-102290Y45040*Y40000D2*X-100410D1*X100780Y41260D2*X101180Y40630D1*X101640Y40210*X102190Y40000*X102820Y40210*X103290Y40630*X103760Y41260*X103920Y42100*Y46300*X107160Y45250D2*X107630Y45880D1*X108180Y46200*X108810Y46300*X109590Y46090*X110140Y45560*X110300Y44940*X110220Y44300*X109900Y43780*X108340Y42730*X107630Y41990*X107160Y40940*X107000Y40000*X110300*X0Y0D2*M02*